<?xml version="1.0" encoding="utf-8"?>
<!-- Generator: Adobe Illustrator 27.1.1, SVG Export Plug-In . SVG Version: 6.00 Build 0)  -->
<svg version="1.1" xmlns="http://www.w3.org/2000/svg" xmlns:xlink="http://www.w3.org/1999/xlink" x="0px" y="0px"
	 viewBox="0 0 850 650" style="enable-background:new 0 0 850 650;" xml:space="preserve">
<style type="text/css">
	.st0{fill:none;}
	.st1{fill:url(#SVGID_1_);}
	.st2{fill:url(#SVGID_00000060003496708159376900000007574860409706522281_);}
	.st3{fill:url(#SVGID_00000177472135692670260490000007913539003952209065_);}
	.st4{fill:url(#SVGID_00000090277699606957449740000002780413839327636643_);}
	.st5{fill:url(#SVGID_00000008831206881148493110000008510358364649894815_);}
	.st6{fill:url(#SVGID_00000151528716825164923870000001680909742508031381_);}
	.st7{opacity:0.15;}
	.st8{fill:#FFFFFF;}
</style>
<g id="Layer_1">
	<rect id="XMLID_1_" class="st0" width="850" height="650"/>
</g>
<g id="Layer_2">
	<g>
		<g>
			<linearGradient id="SVGID_1_" gradientUnits="userSpaceOnUse" x1="97.4488" y1="291.8691" x2="705.619" y2="480.2947">
				<stop  offset="0" style="stop-color:#F8C563"/>
				<stop  offset="0.1927" style="stop-color:#634B1A"/>
				<stop  offset="0.3976" style="stop-color:#FAC664"/>
				<stop  offset="0.5391" style="stop-color:#5F4818"/>
				<stop  offset="0.6769" style="stop-color:#F8C563"/>
				<stop  offset="0.852" style="stop-color:#634B1A"/>
				<stop  offset="1" style="stop-color:#D0A34E"/>
			</linearGradient>
			<path class="st1" d="M447.05,318.38c1.59-1.07,2.14-2.52,3.12-3.58c1.1-1.18,2.12-2.45,3.3-3.55c1.09-1.02,2.29-1.96,3.56-2.73
				c1.37-0.83,2.85-1.53,4.35-2.09c1.4-0.53,2.87-0.9,4.34-1.17c1.59-0.28,3.21-0.38,4.82-0.52c1.47-0.13,2.94-0.41,4.5,0.09
				c0.11,1.22-0.62,2.02-1.1,2.88c-4.88,8.91-9.79,17.81-14.69,26.71c-9.52,17.29-18.97,34.63-28.59,51.87
				c-10.53,18.87-21.93,37.2-34.83,54.57c-4.34,5.84-8.96,11.46-13.45,17.18c-0.64,0.81-1.28,1.62-2.04,2.58
				c0.5,0.42,0.87,0.86,1.34,1.09c19.79,9.54,39.99,18.01,61.43,23.17c7.88,1.9,15.85,3.11,23.94,3.59
				c1.03,0.06,2.07,0.01,2.92,0.01c1.59-1.24,3.01-2.4,4.51-3.46c0.53-0.38,1.25-0.5,2.08-0.81c0.54,1.21,1.04,2.34,1.63,3.64
				c0.73,0.03,1.52,0.18,2.27,0.08c4.82-0.65,9.54-1.74,14-3.73c13.1-5.85,20.9-15.99,23.89-29.88c1.58-7.37,1.05-14.7-1.14-21.9
				c-0.36-1.2-0.68-2.41-1.03-3.68c2.07-1.26,4.09-1.1,6.13-0.56c2.12,0.56,3.7,1.86,4.84,3.68c1.66,2.63,2.22,5.55,2.02,8.62
				c-0.47,7.21-2,14.16-5.11,20.72c-5.95,12.52-15.56,21.01-28.44,25.91c-4.33,1.65-8.79,2.79-13.36,3.55
				c-0.88,0.15-1.73,0.43-2.81,0.71c0.27,0.84,0.41,1.5,0.67,2.1c6.3,14.27,17.07,22.91,32.43,25.82c7.35,1.39,14.71,1.3,22.07,0.36
				c10.01-1.28,19.65-4.04,29.05-7.67c7.59-2.94,14.55-7,21.09-11.82c7.28-5.37,13.85-11.51,20-18.12
				c9.55-10.25,17.94-21.41,25.8-32.99c9.02-13.29,17.26-27.06,25.22-41c7.1-12.43,14.16-24.89,21.22-37.34
				c0.49-0.86,0.87-1.77,1.47-2.99c-1.51,0.32-2.06,1.24-2.77,1.9c-4.83,4.49-9.92,8.66-15.41,12.31c-3.47,2.31-7.06,4.4-10.95,5.93
				c-2.26,0.89-4.57,1.56-7.04,1.68c-4.02,0.2-7.67-1.96-9.28-6.39c-0.96-2.65-1.19-5.42-0.7-8.2c0.38-2.15,0.97-4.27,1.45-6.41
				c0.11-0.51,0.12-1.04,0.23-2.13c-1.27,1.11-2.13,1.83-2.96,2.6c-5.12,4.7-10.59,8.93-16.58,12.48
				c-5.19,3.08-10.67,5.48-16.58,6.84c-8.65,2-17.25,1.72-25.63-1.08c-9.23-3.08-14.1-9.97-15.71-19.37
				c-0.15-0.87-0.27-1.74-0.47-3.04c-0.89,0.75-1.5,1.2-2.04,1.72c-3.33,3.2-6.55,6.52-9.98,9.6c-4.05,3.63-8.48,6.77-13.31,9.31
				c-2.87,1.51-5.81,2.86-9.01,3.48c-1.69,0.33-3.42,0.5-5.14,0.57c-3.6,0.16-6.92-2.02-8.44-6c-0.71-1.86-0.99-3.8-0.88-5.78
				c0.1-1.83,0.26-3.66,0.41-5.8c-0.57,0.34-1.06,0.52-1.4,0.85c-2.66,2.56-5.21,5.25-7.95,7.71c-3.02,2.71-6.43,4.9-10.15,6.56
				c-3.4,1.53-6.93,2.51-10.71,2.47c-8.25-0.08-13.7-5.02-14.51-13.26c-0.52-5.25,0.23-10.36,1.73-15.39
				c1.52-5.11,3.62-9.98,6.22-14.63c5.8-10.33,12.84-19.74,21.3-28.05c4.22-4.14,8.78-7.86,13.92-10.8
				c4.25-2.43,8.72-4.19,13.64-4.74c2.1-0.24,4.14-0.18,6.2,0.23c5.11,1.02,8.1,4.16,8.81,9.35c0.17,1.25,0.13,2.53,0.2,3.8
				c0.03,0.65,0.08,1.31,0.14,2.4c0.63-0.52,1.01-0.73,1.26-1.04c1.23-1.53,2.35-3.15,3.65-4.62c4.09-4.62,9.29-7.12,15.4-7.75
				c2.07-0.21,4.14-0.34,6.22-0.47c0.44-0.03,0.89,0.11,1.29,0.17c0.59,1.14-0.24,1.85-0.65,2.6c-4.22,7.69-8.49,15.36-12.74,23.03
				c-7.61,13.73-15.22,27.47-22.81,41.21c-1.11,2.02-2.17,4.08-3.07,6.2c-0.48,1.14-0.7,2.43-0.81,3.68
				c-0.1,1.16,0.81,1.95,1.99,1.89c0.79-0.04,1.62-0.17,2.36-0.45c1.4-0.53,2.8-1.1,4.12-1.8c9.17-4.92,16.99-11.5,23.82-19.31
				c0.69-0.79,1.24-1.6,1.38-2.72c0.85-6.99,3.42-13.39,6.83-19.48c7.23-12.92,17.24-23.08,30.38-30
				c8.41-4.43,17.36-6.86,26.94-6.66c3.16,0.07,6.19,0.66,9.08,1.95c6.85,3.06,10.23,9.24,9.07,16.56
				c-1.04,6.6-6.83,11.84-13.88,12.53c-2.31,0.23-4.61,0.21-6.81-0.75c-4.59-2-6.17-6.54-3.65-10.88c2.35-4.04,6.17-5.74,10.65-6.15
				c1.37-0.13,2.76-0.02,4.22-0.02c1.55-1.54,1.64-3.46,1.35-5.44c-0.19-1.34-0.98-2.42-2.15-2.98c-1.33-0.64-2.76-1.22-4.21-1.44
				c-3.62-0.55-7.13,0.09-10.46,1.62c-2.75,1.26-5.25,2.9-7.6,4.78c-3.26,2.61-6.18,5.56-8.9,8.72
				c-6.36,7.37-11.68,15.48-16.52,23.9c-2.54,4.41-4.4,9.15-6.02,13.97c-1.14,3.41-1.94,6.91-1.8,10.53
				c0.07,1.72,0.29,3.47,0.75,5.12c0.98,3.51,3.17,6.1,6.51,7.66c4.88,2.28,10.01,2.6,15.25,1.83c5.3-0.78,10.3-2.52,15.1-4.87
				c5.21-2.55,10.04-5.67,14.48-9.42c4.6-3.89,8.93-8.04,12.84-12.61c1.19-1.39,2.27-2.92,3.16-4.52
				c8.33-15.05,16.61-30.13,24.91-45.2c0.61-1.1,1.26-2.17,1.87-3.22c2.81-0.09,5.25,0.51,7.48,1.81c2.81,1.63,4.33,4.06,4.44,7.35
				c0.07,2.23-0.24,4.4-1.11,6.44c-0.86,2.01-1.81,4-2.87,5.91c-8.3,15.07-16.65,30.11-24.95,45.17c-1,1.82-1.94,3.68-2.73,5.59
				c-0.47,1.15-0.73,2.44-0.83,3.68c-0.1,1.27,0.88,2.22,2.16,2.18c1.02-0.03,2.11-0.13,3.03-0.54c2.11-0.93,4.25-1.86,6.15-3.13
				c10.14-6.79,19.28-14.7,26.7-24.46c1.25-1.65,2.38-3.41,3.38-5.22c4.88-8.78,9.66-17.61,14.58-26.37
				c1.63-2.91,3.42-5.76,5.41-8.44c4.28-5.77,10.04-9.05,17.27-9.67c2.27-0.19,4.52-0.61,6.77-0.29c0.38,1.4-0.47,2.18-0.94,3.04
				c-5.2,9.52-10.43,19.03-15.67,28.54c-10.98,19.91-21.88,39.88-33,59.72c-10.69,19.06-22.63,37.32-36.18,54.49
				c-10.11,12.81-21.09,24.82-33.44,35.52c-11.22,9.73-23.31,18.19-36.84,24.42c-12.97,5.98-26.57,9.92-40.65,12.25
				c-5.83,0.96-11.69,1.43-17.59,1.27c-6.03-0.16-11.96-1.04-17.73-2.83c-11.51-3.58-20.75-10.41-28.16-19.83
				c-1.52-1.93-2.55-4.11-2.92-6.57c-0.12-0.78-0.36-1.55-0.57-2.43c-0.87-0.07-1.66-0.2-2.44-0.2c-13.12,0.11-26-1.79-38.78-4.6
				c-17.86-3.92-35.13-9.74-52.13-16.38c-0.86-0.34-1.71-0.69-2.58-1.01c-0.21-0.08-0.45-0.09-0.7-0.14
				c-1.21,0.29-1.82,1.34-2.61,2.15c-6.02,6.24-12.31,12.18-19.02,17.68c-10.86,8.9-22.49,16.6-35.44,22.11
				c-12.91,5.5-26.34,9.27-40.24,11.21c-7.45,1.04-14.95,1.21-22.45,0.19c-15.79-2.16-28.45-9.67-38.24-22.14
				c-1.22-1.56-2.07-3.32-2.57-5.25c-1.46-5.55,0.88-9.7,6.68-11.48c0.3,0.69,0.67,1.38,0.9,2.12c1.12,3.65,2.5,7.2,4.3,10.57
				c6.52,12.2,16.67,19.48,30.17,22.17c7.79,1.55,15.61,1.4,23.44,0.33c8.15-1.11,16.04-3.26,23.82-5.9
				c9.72-3.3,18.57-8.17,26.71-14.39c6.35-4.85,12.27-10.19,17.63-16.1c4.57-5.04,8.9-10.32,13.31-15.51
				c0.59-0.69,1.06-1.49,1.57-2.2c-0.5-1.41-1.79-1.52-2.79-1.96c-13.93-6.2-27.61-12.89-41.02-20.15
				c-12.48-6.77-24.95-13.56-37.44-20.32c-19.09-10.33-38.18-20.65-57.28-30.96c-1.11-0.6-2.24-1.14-3.48-1.77
				c-1.07,0.82-2.08,1.58-3.07,2.36c-6.44,5.1-13.15,9.78-20.31,13.83c-12.49,7.06-25.95,10.03-40.24,9.56
				c-5.92-0.19-11.73-1.07-17.32-3.05c-2.28-0.81-4.47-1.87-6.66-2.89c-0.83-0.38-1.59-0.94-2.34-1.47
				c-8.61-6.13-11.2-16.23-6.62-25.76c1.52-3.16,3.59-5.92,6.04-8.4c7.46-7.57,16.52-12.09,26.93-13.92
				c8.86-1.55,17.71-1.16,26.54,0.34c12.37,2.1,24.12,6.2,35.63,11.07c1.04,0.44,2.11,0.83,3.05,1.21
				c4.05-3.56,19.12-25.53,21.62-31.41c-0.36-0.74-0.96-0.39-1.47-0.3c-3.18,0.57-6.36,1.17-9.54,1.72
				c-8.35,1.45-16.78,1.72-25.21,1.11c-11.39-0.81-22.32-3.51-32.54-8.77c-4.64-2.39-8.95-5.26-12.88-8.7
				c-8.53-7.47-13.34-16.97-15.22-28.03c-1.99-11.68,0.16-22.74,5.21-33.33c3.21-6.73,7.5-12.72,12.59-18.15
				c4.92-5.25,10.41-9.84,16.49-13.69c9.05-5.74,19-8.83,29.65-9.7c7.67-0.63,15.23-0.13,22.61,2.22
				c5.57,1.78,10.63,4.47,14.81,8.65c4.57,4.57,7.15,10.09,8.11,16.47c0.81,5.36,0.3,10.63-1,15.8
				c-4.75,18.96-16.13,32.64-33.49,41.42c-1.32,0.67-2.79,1.15-4.24,1.42c-5.49,1.05-9.31-1.86-9.83-7.39
				c-0.04-0.45,0.04-0.9,0.05-1.25c0.72-0.97,1.7-0.88,2.58-1.03c6.88-1.14,13.47-3.18,19.7-6.33c4.77-2.41,9.14-5.4,12.93-9.2
				c3.64-3.65,6.41-7.86,8.18-12.71c1.99-5.46,3.38-11.03,3.16-16.91c-0.41-10.61-5.43-18.13-15.12-22.49
				c-5.16-2.32-10.63-2.99-16.24-2.82c-7.99,0.24-15.58,2.22-22.57,5.99c-19.27,10.41-32.05,26.09-37.43,47.47
				c-1.74,6.9-1.87,13.93-0.55,20.96c1.81,9.58,6.58,17.41,13.98,23.67c6.76,5.72,14.65,9.16,23.2,11.11
				c9.19,2.09,18.49,2.56,27.89,1.71c5.3-0.48,10.54-1.26,15.77-2.17c2.04-0.36,3.24-1.29,4.23-3.04
				c6.34-11.14,12.76-22.23,19.15-33.34c5.13-8.91,10.23-17.82,15.37-26.72c4.8-8.3,9.94-16.39,15.81-23.99
				c4.32-5.59,9-10.84,14.35-15.47c4.12-3.57,8.56-6.68,13.49-9.02c6.39-3.03,13.1-4.44,20.18-3.71c1.26,0.13,2.52,0.36,3.73,0.71
				c5.76,1.63,9.19,5.47,10.56,11.25c0.78,3.31,0.79,6.63,0.33,9.98c-1.01,7.31-3.57,14.07-7.37,20.37
				c-6.55,10.86-14.73,20.39-24,29c-12.34,11.46-26.09,20.96-40.8,29.1c-4.95,2.74-10.01,5.26-15.08,7.77
				c-1.62,0.8-2.82,1.84-3.79,3.37c-9.57,15.07-20.67,28.92-33.27,41.58c-0.64,0.64-1.2,1.35-1.87,2.1c0.7,1.17,1.85,1.49,2.81,2.01
				c12.8,6.9,25.61,13.8,38.44,20.65c15.48,8.28,30.63,17.13,45.63,26.25c14.8,9,29.83,17.61,45.17,25.65
				c1.21,0.64,2.45,1.23,3.86,1.94c0.92-1.26,1.75-2.35,2.52-3.48c8.65-12.56,16.58-25.58,24.23-38.76
				c6.55-11.28,13.01-22.62,19.51-33.93c0.43-0.76,1-1.48,1.13-2.99c-1.14,1.01-1.9,1.64-2.61,2.32c-3.01,2.89-6.17,5.58-9.75,7.73
				c-3.93,2.36-8.1,3.86-12.77,3.78c-9-0.16-14.79-5.45-15.42-14.44c-0.18-2.51,0.19-5.06,0.31-7.59c0.04-0.76,0.07-1.51,0.14-2.83
				c-1.16,1.01-1.94,1.63-2.66,2.33c-4.65,4.52-9.67,8.58-15.07,12.18c-6.2,4.13-12.79,7.38-20.09,9.08
				c-8.53,1.98-17.01,1.72-25.29-1.06c-9.36-3.14-14.37-10.08-15.76-19.67c-0.84-5.81-0.14-11.56,1.91-17.05
				c7.66-20.51,21.34-35.4,41.64-43.89c7-2.93,14.4-4.12,22.02-3.74c2.56,0.13,5.04,0.6,7.45,1.44c0.87,0.3,1.73,0.66,2.55,1.08
				c5.94,3.08,8.23,8.4,6.32,14.81c-1.34,4.52-3.86,8.36-7.09,11.76c-2.81,2.95-6.08,5.32-9.56,7.41
				c-5.97,3.58-12.36,6.22-18.95,8.41c-7.24,2.4-14.62,4.25-22.12,5.63c-1.36,0.25-2.7,0.56-4.26,0.89c-0.56,1.46-1.2,2.93-1.7,4.44
				c-1.27,3.86-2.02,7.81-1.84,11.91c0.29,6.46,3.28,10.54,9.38,12.72c4.35,1.55,8.81,1.67,13.33,0.99c5.3-0.79,10.3-2.54,15.1-4.87
				c5.52-2.69,10.74-5.88,15.27-10.06c3.47-3.21,6.81-6.57,10.21-9.87c1.01-0.98,1.64-2.17,2.19-3.48
				c6.68-16.06,16.75-29.7,29.61-41.33c4.3-3.89,9.07-7.15,14.41-9.48c4.62-2.02,9.42-3.06,14.5-2.5c5.74,0.64,8.97,3.74,9.73,9.48
				c0.16,1.25,0.11,2.54,0.16,3.8C446.91,316.73,446.97,317.37,447.05,318.38z M271.66,327.75c1.92-0.15,2.97-0.89,4.05-1.45
				c29.27-14.98,51.81-37.04,68.42-65.27c2.09-3.56,3.67-7.44,5.33-11.24c1.39-3.17,2.42-6.5,2.9-9.94c0.32-2.27,0.5-4.61,0.28-6.88
				c-0.4-4.2-3.08-6.65-7.27-7c-1.14-0.1-2.31-0.04-3.45,0.1c-3.51,0.41-6.67,1.7-9.54,3.79c-3.28,2.4-6.15,5.23-8.81,8.28
				c-5.63,6.47-10.33,13.59-14.44,21.09c-11.87,21.64-23.74,43.28-35.61,64.93C272.97,325.17,272.47,326.19,271.66,327.75z
				 M209.35,385.66c-1.04-0.61-1.89-1.18-2.81-1.63c-6.11-2.98-12.21-6-18.38-8.87c-6.38-2.96-12.91-5.58-19.68-7.54
				c-5.34-1.55-10.74-2.67-16.34-2.47c-7.99,0.28-14.45,3.58-19.32,9.91c-5.78,7.5-6.17,16.92-1.09,24.89
				c2.21,3.46,5.14,6.2,8.62,8.36c7.95,4.94,16.6,5.98,25.65,4.5c7.15-1.17,13.71-3.96,19.87-7.72c8.01-4.9,15.24-10.79,21.85-17.44
				C208.27,387.11,208.72,386.44,209.35,385.66z M531.77,316.21c-0.1-1.55-0.08-2.48-0.24-3.39c-0.5-2.97-2.55-4.38-5.51-3.69
				c-1.22,0.28-2.45,0.76-3.51,1.42c-2.15,1.34-4.27,2.76-6.23,4.35c-3.96,3.2-7.42,6.93-10.67,10.85
				c-9.5,11.49-16.82,24.26-22.32,38.08c-1.19,2.99-2.06,6.13-2.79,9.26c-0.44,1.88-0.52,3.9-0.39,5.84c0.26,3.85,2.98,5.86,6.68,5
				c1.32-0.31,2.67-0.87,3.77-1.65c2.35-1.66,4.65-3.42,6.77-5.36c3.59-3.27,6.7-7.01,9.66-10.85
				c7.78-10.11,14.26-21.01,19.45-32.65c1.59-3.57,2.86-7.3,4.05-11.04C531.19,320.2,531.44,317.88,531.77,316.21z M443.86,315.89
				c-0.21-1.6-0.24-2.89-0.58-4.09c-0.58-2.01-2.12-3.05-4.2-2.78c-1.23,0.16-2.46,0.6-3.6,1.11c-2.65,1.19-4.94,2.96-7.15,4.82
				c-4.25,3.58-8.02,7.63-11.5,11.95c-9.2,11.4-16.27,24.04-21.71,37.6c-1.15,2.87-2,5.9-2.66,8.93c-0.43,1.99-0.5,4.14-0.31,6.17
				c0.29,3.07,2.4,4.74,5.47,4.46c1.34-0.12,2.76-0.52,3.91-1.2c2.17-1.29,4.27-2.74,6.2-4.37c4.16-3.51,7.69-7.63,11.03-11.92
				c7.48-9.59,13.7-19.95,18.84-30.96c1.95-4.18,3.72-8.45,4.87-12.93C443.07,320.37,443.45,317.98,443.86,315.89z M318.17,350.86
				c1.12-0.09,1.69-0.05,2.22-0.18c15.68-3.96,28.15-12.41,36.68-26.33c1.81-2.96,3.41-6.05,4.26-9.42c0.42-1.65,0.67-3.42,0.6-5.11
				c-0.13-3.01-2.25-4.55-5.23-3.89c-1.33,0.29-2.7,0.75-3.86,1.45c-2.06,1.25-4.08,2.62-5.94,4.15
				c-3.86,3.15-7.17,6.85-10.33,10.68c-6.78,8.22-12.42,17.2-17.48,26.55C318.81,349.25,318.63,349.79,318.17,350.86z"/>
		</g>
	</g>
	<g>
		<g>
			
				<linearGradient id="SVGID_00000029028118874720018710000006419367597561591471_" gradientUnits="userSpaceOnUse" x1="405.234" y1="174.2537" x2="603.6351" y2="174.2537">
				<stop  offset="0" style="stop-color:#F8C563"/>
				<stop  offset="0.1331" style="stop-color:#634B1A"/>
				<stop  offset="0.3007" style="stop-color:#FAC664"/>
				<stop  offset="0.5391" style="stop-color:#5F4818"/>
				<stop  offset="0.6769" style="stop-color:#F8C563"/>
				<stop  offset="0.852" style="stop-color:#634B1A"/>
				<stop  offset="1" style="stop-color:#D0A34E"/>
			</linearGradient>
			<path style="fill:url(#SVGID_00000029028118874720018710000006419367597561591471_);" d="M401.03,220.94h5.02v-32.42l60.07-33.73
				l4.57-2.56l33.76-18.96l33.76,18.95l4.54,2.55l60.11,33.75v32.08c0.21,0.01,0.42,0.03,0.63,0.05l4.39,0.35v-35.4l-103.43-58.08
				l-102.14,57.36l-1.28,0.73v31.43l-0.39,0.09l0.39-0.01V220.94z"/>
			
				<linearGradient id="SVGID_00000150787594269570863550000012586504992685314981_" gradientUnits="userSpaceOnUse" x1="405.234" y1="254.171" x2="603.6351" y2="254.171">
				<stop  offset="0" style="stop-color:#F8C563"/>
				<stop  offset="0.1331" style="stop-color:#634B1A"/>
				<stop  offset="0.3007" style="stop-color:#FAC664"/>
				<stop  offset="0.5391" style="stop-color:#5F4818"/>
				<stop  offset="0.6769" style="stop-color:#F8C563"/>
				<stop  offset="0.852" style="stop-color:#634B1A"/>
				<stop  offset="1" style="stop-color:#D0A34E"/>
			</linearGradient>
			<path style="fill:url(#SVGID_00000150787594269570863550000012586504992685314981_);" d="M608.21,249.71l-0.75,0.09
				c-21.61,2.43-40.32,3.61-57.2,3.61c-3.82,0-7.43-0.06-10.87-0.17c-1.13-0.03-2.23-0.07-3.32-0.13c-8.91-0.38-16.64-1.11-23.73-2
				l0.31,5.28c10.53,1.29,22.65,2.23,37.58,2.23c16.95,0,35.72-1.18,57.39-3.61l0.6-0.07V249.71z"/>
			
				<linearGradient id="SVGID_00000128484892762035373510000003637145560946004414_" gradientUnits="userSpaceOnUse" x1="405.234" y1="269.8447" x2="603.6351" y2="269.8447">
				<stop  offset="0" style="stop-color:#F8C563"/>
				<stop  offset="0.1331" style="stop-color:#634B1A"/>
				<stop  offset="0.3007" style="stop-color:#FAC664"/>
				<stop  offset="0.5391" style="stop-color:#5F4818"/>
				<stop  offset="0.6769" style="stop-color:#F8C563"/>
				<stop  offset="0.852" style="stop-color:#634B1A"/>
				<stop  offset="1" style="stop-color:#D0A34E"/>
			</linearGradient>
			<path style="fill:url(#SVGID_00000128484892762035373510000003637145560946004414_);" d="M401.72,272.18
				c7.07-0.11,14.26,0.76,21.24,1.6l0.16,0.02c5.19,0.62,10.56,1.27,15.87,1.52c3.35,0.16,6.65,0.24,9.83,0.24
				c17.7,0,29.41-2.51,38.83-4.52c2.7-0.58,5.26-1.13,7.8-1.58l0.23-3.94l0.08-1.41c-3.07,0.52-6.1,1.17-9.22,1.84
				c-9.67,2.07-20.63,4.41-37.52,4.41c-3.13,0-6.41-0.08-9.77-0.24c-5.23-0.25-10.54-0.89-15.67-1.51l-0.1-0.01
				c-7.1-0.85-14.45-1.74-21.78-1.63l-0.66,0.01v5.21L401.72,272.18z"/>
			
				<linearGradient id="SVGID_00000077300347576118890720000014198297100047656324_" gradientUnits="userSpaceOnUse" x1="405.234" y1="271.7705" x2="603.6351" y2="271.7705">
				<stop  offset="0" style="stop-color:#F8C563"/>
				<stop  offset="0.1331" style="stop-color:#634B1A"/>
				<stop  offset="0.3007" style="stop-color:#FAC664"/>
				<stop  offset="0.5391" style="stop-color:#5F4818"/>
				<stop  offset="0.6769" style="stop-color:#F8C563"/>
				<stop  offset="0.852" style="stop-color:#634B1A"/>
				<stop  offset="1" style="stop-color:#D0A34E"/>
			</linearGradient>
			<path style="fill:url(#SVGID_00000077300347576118890720000014198297100047656324_);" d="M569.25,280.44h0.15
				c15.58-0.05,28.12-1.79,38.35-5.33l0.45-0.16v-5.54l-0.91,0.33c-10.05,3.69-22.1,5.44-37.91,5.49h-0.13
				c-8.33,0-17.01-2.6-26.22-5.41l-1.32-0.41v0.01c-8.23-2.51-16.72-5.06-25.81-6.06c-0.97-0.11-1.93-0.19-2.87-0.25l0.31,5.24
				c0.66,0.05,1.33,0.12,2,0.19c8.84,0.97,17.32,3.56,25.51,6.06l0.2-0.65l-0.12,0.67C550.72,277.61,559.97,280.44,569.25,280.44z"
				/>
			
				<linearGradient id="SVGID_00000010297821347976051010000015914646154198123966_" gradientUnits="userSpaceOnUse" x1="405.234" y1="223.4593" x2="603.6351" y2="223.4593">
				<stop  offset="0" style="stop-color:#F8C563"/>
				<stop  offset="0.1331" style="stop-color:#634B1A"/>
				<stop  offset="0.3007" style="stop-color:#FAC664"/>
				<stop  offset="0.5391" style="stop-color:#5F4818"/>
				<stop  offset="0.6769" style="stop-color:#F8C563"/>
				<stop  offset="0.852" style="stop-color:#634B1A"/>
				<stop  offset="1" style="stop-color:#D0A34E"/>
			</linearGradient>
			<path style="fill:url(#SVGID_00000010297821347976051010000015914646154198123966_);" d="M607.52,286.14
				c-8.25,0.15-16.51,0.23-25.25,0.23c-24.95,0-48.62-0.62-71.52-1.23l-0.61-10.73h0.02l-0.15-2.59H510l-0.27-4.84l-0.15-2.59
				l-0.22-3.83l-0.06-1.01l-0.09-1.6l-0.06-0.99l-3.05-52.72l24.53,42.49c0.86-7.88-1.28-17.55-6.56-26.68
				c-3.78-6.55-8.61-11.84-13.72-15.49l39.59,22.86c-3.19-7.26-9.89-14.55-19.02-19.83c-6.55-3.78-13.38-5.95-19.62-6.56h45.71
				c-6.39-4.69-15.84-7.66-26.38-7.66c-7.57,0-14.56,1.54-20.27,4.13l39.59-22.86c-7.88-0.86-17.55,1.28-26.68,6.56
				c-6.55,3.78-11.84,8.61-15.49,13.72l22.86-39.59c-7.26,3.19-14.55,9.89-19.83,19.02c-3.78,6.55-5.95,13.38-6.56,19.62
				c-0.61-6.25-2.77-13.07-6.56-19.62c-5.27-9.13-12.57-15.83-19.83-19.02l22.86,39.59c-3.65-5.11-8.94-9.93-15.49-13.72
				c-9.13-5.27-18.8-7.42-26.68-6.56l39.59,22.86c-5.71-2.6-12.71-4.13-20.27-4.13c-10.55,0-19.99,2.97-26.38,7.66h45.71
				c-6.25,0.61-13.07,2.77-19.62,6.56c-9.13,5.27-15.83,12.57-19.02,19.83l39.59-22.86c-5.11,3.65-9.93,8.94-13.72,15.49
				c-5.07,8.78-7.24,18.04-6.64,25.74l-5.21-0.7c-1.36-0.17-2.73-0.33-4.12-0.47c-6.41-0.67-13.2-1.1-20.78-1.1
				c-13.52,0-28.59,1.37-46.08,4.19l-0.57,0.09v5.28l0.79-0.13c17.45-2.83,32.45-4.21,45.85-4.21c7.83,0,14.8,0.47,21.39,1.19
				c1.96,0.22,3.89,0.45,5.79,0.71c5.42,0.73,10.67,1.6,16.05,2.49c1.78,0.3,3.6,0.6,5.45,0.9l0.3-5.23
				c-1.65-0.26-3.28-0.54-4.91-0.81c-4.33-0.72-8.6-1.43-12.93-2.06l-0.44-0.06l24.02-41.61l-3.04,52.7l-0.06,0.99l-0.1,1.6
				l-0.06,1.01l-0.22,3.83l-0.15,2.59l-0.27,4.84h-0.02l-0.14,2.59h0.01l-0.57,10.39c-16.55-0.42-32.49-0.76-48.33-0.76
				c-17.89,0-33.52,0.45-47.79,1.37l-0.63,0.04v5.22l0.72-0.05c14.21-0.93,29.82-1.38,47.7-1.38c19.69,0,39.62,0.53,60.71,1.08
				l0.12,0c23.03,0.61,46.85,1.24,72.02,1.24c8.74,0,17-0.07,25.25-0.23l0.67-0.01v-5.21L607.52,286.14z"/>
		</g>
	</g>
	<g class="st7">
		<path d="M520.36,214.46c-1.84-2.43-3.82-4.63-5.89-6.54l-2.66-1.54C514.8,208.53,517.7,211.26,520.36,214.46z"/>
		<path d="M530.69,246.15l-23.15-40.09l0.04,0.74l23.05,39.93C530.66,246.55,530.67,246.35,530.69,246.15z"/>
		<path d="M520.41,194.36l-8.6,4.97c5.71-2.6,12.71-4.13,20.27-4.13c9.11,0,17.38,2.22,23.59,5.84h1.35
			c-6.39-4.69-15.84-7.66-26.38-7.66C527.08,193.38,523.65,193.73,520.41,194.36z"/>
		<path d="M485.24,181.21c-9.13-5.27-18.8-7.42-26.68-6.56l2.93,1.69c7.59-0.46,16.62,1.74,25.18,6.68
			c5.49,3.17,10.07,7.07,13.57,11.25C496.61,189.42,491.52,184.84,485.24,181.21z"/>
		<path d="M532.37,209.42c5.53,3.19,10.15,7.13,13.66,11.34c-3.63-4.9-8.78-9.51-15.1-13.16c-3.57-2.06-7.22-3.63-10.82-4.74h-7.37
			C518.99,203.47,525.82,205.63,532.37,209.42z"/>
		<path d="M523.28,181.21c-3.22,1.86-6.12,3.97-8.69,6.24l-5.37,9.3c3.65-5.11,8.94-9.93,15.49-13.72
			c7.53-4.35,15.43-6.57,22.39-6.73l2.86-1.65C542.08,173.79,532.41,175.94,523.28,181.21z"/>
		<path d="M466.82,385.34c-1.3-1.99-2.14-4.42-2.42-7.25c-0.52-5.25,0.23-10.36,1.73-15.39c1.52-5.11,3.62-9.98,6.22-14.63
			c5.8-10.33,12.84-19.74,21.3-28.05c4.22-4.14,8.78-7.86,13.92-10.8c4.25-2.43,8.72-4.19,13.64-4.74c2.1-0.24,4.14-0.18,6.2,0.23
			c2.42,0.48,4.34,1.46,5.8,2.88c-1.49-2.45-3.9-4.04-7.23-4.7c-2.05-0.41-4.1-0.47-6.2-0.23c-4.92,0.55-9.39,2.31-13.64,4.74
			c-5.14,2.95-9.7,6.66-13.92,10.8c-8.46,8.31-15.5,17.71-21.3,28.05c-2.61,4.64-4.7,9.51-6.22,14.63
			c-1.5,5.03-2.25,10.14-1.73,15.39C463.33,380.03,464.68,383.1,466.82,385.34z"/>
		<path d="M561.64,304.56c-2.07,0.13-4.15,0.25-6.22,0.47c-6.11,0.63-11.31,3.13-15.4,7.75c-1.29,1.46-2.4,3.07-3.62,4.59
			c0.01,0.16,0.01,0.33,0.02,0.49c0.03,0.65,0.08,1.31,0.14,2.4c0.63-0.52,1.01-0.73,1.26-1.04c1.23-1.53,2.35-3.15,3.65-4.62
			c4.09-4.62,9.29-7.12,15.4-7.75c2-0.21,4-0.33,6.01-0.45c0.26-0.47,0.41-0.99,0.06-1.67
			C562.53,304.67,562.08,304.54,561.64,304.56z"/>
		<path d="M513.33,268.35c0.44,0.03,0.89,0.08,1.34,0.13l-0.21-3.55c0.95,0.06,1.91,0.14,2.87,0.25c9.09,1,17.59,3.55,25.81,6.06
			v-0.01l1.32,0.41c9.21,2.81,17.89,5.41,26.22,5.41h0.13c15.54-0.05,27.44-1.74,37.38-5.3v-2.34l-0.91,0.33
			c-10.05,3.69-22.1,5.44-37.91,5.49h-0.13c-8.33,0-17.01-2.6-26.22-5.41l-1.32-0.41v0.01c-8.23-2.51-16.72-5.06-25.81-6.06
			c-0.97-0.11-1.93-0.19-2.87-0.25L513.33,268.35z"/>
		<path d="M510.82,174.36c-3.07,5.31-5.05,10.8-6.03,16.02c0.42,1.84,0.73,3.66,0.91,5.42c0.61-6.25,2.77-13.07,6.56-19.62
			c4.41-7.64,10.24-13.56,16.27-17.17l2.12-3.67C523.38,158.53,516.09,165.23,510.82,174.36z"/>
		<path d="M510.54,387.21c-0.36-0.58-0.69-1.19-0.95-1.87c-0.71-1.86-0.99-3.8-0.88-5.78c0.1-1.83,0.26-3.66,0.41-5.8
			c-0.57,0.34-1.06,0.52-1.4,0.85c-0.09,0.08-0.17,0.17-0.25,0.25c-0.07,0.99-0.14,1.94-0.19,2.88c-0.11,1.98,0.17,3.93,0.88,5.78
			C508.72,385.02,509.54,386.26,510.54,387.21z"/>
		<path d="M630.48,309.87c0.1,0.27,0.18,0.55,0.22,0.85c0.28,1.98,0.19,3.9-1.35,5.44c-1.46,0-2.85-0.11-4.22,0.02
			c-4.48,0.41-8.3,2.11-10.65,6.15c-1.97,3.39-1.43,6.89,1.08,9.22c-1.19-2.15-1.15-4.81,0.35-7.4c2.35-4.04,6.17-5.74,10.65-6.15
			c1.37-0.13,2.76-0.02,4.22-0.02c1.55-1.54,1.64-3.46,1.35-5.44C631.98,311.4,631.37,310.47,630.48,309.87z"/>
		<path d="M635.21,370.35c0.11-0.51,0.12-1.04,0.23-2.13c-0.8,0.7-1.43,1.24-2,1.74c-0.39,1.66-0.82,3.31-1.11,4.98
			c-0.49,2.77-0.26,5.55,0.7,8.2c0.58,1.6,1.43,2.9,2.47,3.9c-0.39-0.63-0.76-1.31-1.03-2.08c-0.96-2.65-1.19-5.42-0.7-8.2
			C634.15,374.6,634.74,372.49,635.21,370.35z"/>
		<path d="M379.04,385.09c-1.44-2.2-2.33-4.91-2.55-8.1c-0.18-2.51,0.19-5.06,0.31-7.59c0.04-0.76,0.07-1.51,0.14-2.83
			c-0.63,0.55-1.14,0.97-1.59,1.37c-0.13,2.41-0.46,4.84-0.29,7.23C375.35,379.31,376.75,382.65,379.04,385.09z"/>
		<path d="M531.93,324.19c0.69-2.18,0.94-4.5,1.27-6.17c-0.1-1.55-0.08-2.48-0.24-3.39c-0.25-1.5-0.9-2.6-1.86-3.23
			c0.18,0.43,0.34,0.89,0.43,1.41c0.15,0.9,0.13,1.84,0.24,3.39c-0.33,1.67-0.58,3.99-1.27,6.17c-1.19,3.73-2.46,7.46-4.05,11.04
			c-5.19,11.64-11.67,22.54-19.45,32.65c-2.96,3.85-6.07,7.58-9.66,10.85c-2.13,1.94-4.43,3.7-6.77,5.36
			c-1.1,0.78-2.45,1.35-3.77,1.65c-1.86,0.43-3.47,0.14-4.65-0.75c1.03,2.22,3.27,3.22,6.08,2.57c1.32-0.31,2.67-0.87,3.77-1.65
			c2.35-1.66,4.65-3.42,6.77-5.36c3.59-3.27,6.7-7.01,9.66-10.85c7.78-10.11,14.26-21.01,19.45-32.65
			C529.48,331.66,530.74,327.93,531.93,324.19z"/>
		<path d="M439.04,337.44c1.95-4.18,3.72-8.45,4.87-12.93c0.6-2.33,0.97-4.72,1.39-6.81c-0.21-1.6-0.24-2.89-0.58-4.09
			c-0.3-1.04-0.86-1.81-1.61-2.29c0.06,0.15,0.12,0.3,0.17,0.47c0.34,1.2,0.37,2.49,0.58,4.09c-0.42,2.08-0.79,4.47-1.39,6.81
			c-1.15,4.48-2.92,8.74-4.87,12.93c-5.14,11.01-11.36,21.37-18.84,30.96c-3.34,4.28-6.87,8.41-11.03,11.92
			c-1.93,1.63-4.03,3.08-6.2,4.37c-1.14,0.68-2.57,1.08-3.91,1.2c-1.44,0.13-2.65-0.18-3.58-0.85c0.82,1.9,2.62,2.89,5.02,2.67
			c1.34-0.12,2.76-0.52,3.91-1.2c2.17-1.29,4.27-2.74,6.2-4.37c4.16-3.51,7.69-7.63,11.03-11.92
			C427.67,358.81,433.9,348.46,439.04,337.44z"/>
		<path d="M658.69,379.05c-1.9,1.27-4.05,2.21-6.15,3.13c-0.91,0.4-2.01,0.51-3.03,0.54c-0.26,0.01-0.5-0.04-0.72-0.1
			c0.05,1.13,0.97,1.95,2.16,1.92c1.02-0.03,2.11-0.13,3.03-0.54c2.11-0.93,4.25-1.86,6.15-3.13c10.14-6.79,19.28-14.7,26.7-24.46
			c1.25-1.65,2.38-3.41,3.38-5.22c4.88-8.78,9.66-17.61,14.58-26.37c1.63-2.91,3.42-5.76,5.41-8.44c4.28-5.77,10.04-9.05,17.27-9.67
			c1.74-0.15,3.46-0.42,5.19-0.4c0.22-0.48,0.33-1.02,0.15-1.71c-2.25-0.32-4.5,0.1-6.77,0.29c-7.23,0.62-12.99,3.89-17.27,9.67
			c-1.99,2.68-3.78,5.53-5.41,8.44c-4.92,8.76-9.69,17.59-14.58,26.37c-1.01,1.81-2.13,3.58-3.38,5.22
			C677.97,364.34,668.83,372.26,658.69,379.05z"/>
		<path d="M141.79,410.14c7.95,4.94,16.6,5.98,25.65,4.5c7.15-1.17,13.71-3.96,19.87-7.72c8.01-4.9,15.24-10.79,21.85-17.44
			c0.55-0.55,1-1.22,1.63-2c-0.71-0.42-1.34-0.81-1.95-1.16c-0.39,0.5-0.72,0.95-1.11,1.34c-6.62,6.65-13.84,12.55-21.85,17.44
			c-6.15,3.76-12.72,6.55-19.87,7.72c-9.05,1.48-17.7,0.44-25.65-4.5c-2.44-1.52-4.6-3.32-6.43-5.45
			C136.02,405.82,138.68,408.21,141.79,410.14z"/>
		<path d="M475.04,304.83c-1.56-0.51-3.04-0.23-4.5-0.09c-1.61,0.15-3.23,0.24-4.82,0.52c-1.47,0.26-2.94,0.64-4.34,1.17
			c-1.5,0.57-2.98,1.26-4.35,2.09c-1.27,0.77-2.47,1.72-3.56,2.73c-1.18,1.1-2.2,2.37-3.3,3.55c-0.67,0.72-1.14,1.62-1.86,2.45
			c0,0.22,0.01,0.44,0.02,0.66c0.03,0.64,0.09,1.28,0.16,2.29c1.59-1.07,2.14-2.52,3.12-3.58c1.1-1.18,2.12-2.45,3.3-3.55
			c1.09-1.02,2.29-1.96,3.56-2.73c1.37-0.83,2.85-1.53,4.35-2.09c1.4-0.53,2.87-0.9,4.34-1.17c1.59-0.28,3.21-0.38,4.82-0.52
			c0.91-0.08,1.82-0.22,2.76-0.19C474.95,305.91,475.09,305.42,475.04,304.83z"/>
		<path d="M493.98,168.75c-4.74-6.27-10.43-10.91-16.1-13.41l22.73,39.37c0.55,0.67,1.07,1.35,1.56,2.04l-22.86-39.59
			C484.42,159.41,489.55,163.4,493.98,168.75z"/>
		<path d="M582.27,286.37c-24.47,0-47.7-0.6-70.19-1.19l0.1,1.78c22.9,0.61,46.57,1.23,71.52,1.23c8.47,0,16.5-0.07,24.5-0.22v-1.84
			l-0.69,0.01C599.27,286.29,591.01,286.37,582.27,286.37z"/>
		<path d="M550.26,253.42c-3.82,0-7.43-0.06-10.87-0.17c-1.13-0.03-2.23-0.07-3.32-0.13c-8.91-0.38-16.64-1.11-23.73-2l0.31,5.28
			c0.44,0.05,0.89,0.11,1.34,0.16l-0.21-3.62c7.09,0.9,14.82,1.62,23.73,2c1.09,0.05,2.2,0.1,3.32,0.13
			c3.44,0.11,7.05,0.17,10.87,0.17c16.7,0,35.2-1.16,56.52-3.54v-1.98l-0.75,0.09C585.85,252.24,567.14,253.42,550.26,253.42z"/>
		<path d="M493.19,195.64c-4.62-1.44-9.82-2.26-15.32-2.26c-10.55,0-19.99,2.97-26.38,7.66h4.23c6.21-3.62,14.49-5.84,23.59-5.84
			c7.57,0,14.56,1.54,20.27,4.13L493.19,195.64z"/>
		<path d="M488.4,202.86c-3.6,1.11-7.25,2.68-10.82,4.74c-9.13,5.27-15.83,12.57-19.02,19.83l3.43-1.98
			c3.62-5.95,9.49-11.67,17.02-16.02c6.55-3.78,13.38-5.95,19.62-6.56H488.4z"/>
		<path d="M235.12,380.43c-0.35-0.19-0.72-0.35-1.08-0.53c-0.1,0.11-0.19,0.22-0.29,0.34c0.7,1.17,1.85,1.49,2.81,2.01
			c12.8,6.9,25.61,13.8,38.44,20.65c15.48,8.28,30.63,17.13,45.63,26.25c14.8,9,29.83,17.61,45.17,25.65
			c1.21,0.64,2.45,1.23,3.86,1.94c0.92-1.26,1.75-2.35,2.52-3.48c8.65-12.56,16.58-25.58,24.23-38.76
			c6.55-11.28,13.01-22.62,19.51-33.93c0.43-0.76,1-1.48,1.13-2.99c-1.14,1.01-1.9,1.64-2.61,2.32c-0.43,0.41-0.87,0.81-1.31,1.22
			c-6.04,10.53-12.06,21.07-18.15,31.56c-7.65,13.18-15.58,26.2-24.23,38.76c-0.78,1.13-1.6,2.21-2.52,3.48
			c-1.42-0.71-2.65-1.31-3.86-1.94c-15.34-8.05-30.37-16.65-45.17-25.65c-15-9.12-30.15-17.97-45.63-26.25
			C260.73,394.22,247.92,387.33,235.12,380.43z"/>
		<path d="M241.28,338.48c-5.23,0.91-10.47,1.69-15.77,2.17c-9.39,0.86-18.69,0.39-27.89-1.71c-8.56-1.95-16.44-5.39-23.2-11.11
			c-2-1.69-3.79-3.49-5.4-5.41c1.94,2.61,4.22,5.02,6.84,7.23c6.76,5.72,14.65,9.16,23.2,11.11c9.19,2.09,18.49,2.56,27.89,1.71
			c5.3-0.48,10.54-1.26,15.77-2.17c2.04-0.36,3.24-1.29,4.23-3.04c6.34-11.14,12.76-22.23,19.15-33.34
			c5.13-8.91,10.23-17.82,15.37-26.72c4.8-8.3,9.94-16.39,15.81-23.99c4.32-5.59,9-10.84,14.35-15.47
			c4.12-3.57,8.56-6.68,13.49-9.02c6.39-3.03,13.1-4.45,20.18-3.71c1.26,0.13,2.52,0.36,3.73,0.71c2.83,0.8,5.09,2.14,6.83,3.98
			c-1.85-2.79-4.57-4.75-8.26-5.79c-1.21-0.34-2.48-0.58-3.73-0.71c-7.08-0.73-13.79,0.68-20.18,3.71
			c-4.94,2.34-9.37,5.45-13.49,9.02c-5.35,4.63-10.03,9.88-14.35,15.47c-5.88,7.6-11.01,15.68-15.81,23.99
			c-5.14,8.9-10.25,17.81-15.37,26.72c-6.39,11.11-12.82,22.2-19.15,33.34C244.51,337.2,243.32,338.13,241.28,338.48z"/>
		<path d="M340.18,306.65c-20.3,8.49-33.98,23.38-41.64,43.89c-2.05,5.49-2.75,11.24-1.91,17.05c0.77,5.3,2.64,9.78,5.74,13.27
			c-2.25-3.18-3.67-7.03-4.31-11.45c-0.84-5.81-0.14-11.56,1.91-17.05c7.66-20.51,21.34-35.4,41.64-43.89
			c7-2.93,14.4-4.12,22.02-3.74c2.56,0.13,5.04,0.6,7.45,1.44c0.87,0.3,1.73,0.66,2.55,1.08c1.53,0.79,2.81,1.74,3.84,2.8
			c-1.17-1.84-2.94-3.41-5.28-4.62c-0.82-0.42-1.68-0.78-2.55-1.08c-2.41-0.84-4.89-1.32-7.45-1.44
			C354.58,302.53,347.18,303.72,340.18,306.65z"/>
		<polygon points="401.03,220.94 402.47,220.94 402.47,218.93 402.07,218.94 402.47,218.84 402.47,187.41 403.75,186.69 
			505.89,129.33 607.88,186.61 607.88,185.59 504.45,127.51 402.31,184.87 401.03,185.59 401.03,217.02 400.64,217.12 
			401.03,217.11 		"/>
		<path d="M625.14,370.13c-4.43,3.75-9.27,6.87-14.48,9.42c-4.8,2.35-9.8,4.1-15.1,4.87c-5.24,0.77-10.36,0.45-15.25-1.83
			c-1.43-0.67-2.63-1.53-3.63-2.56c1.18,1.88,2.87,3.35,5.06,4.38c4.88,2.28,10.01,2.6,15.25,1.83c5.3-0.78,10.3-2.52,15.1-4.87
			c5.21-2.55,10.04-5.67,14.48-9.42c4.6-3.89,8.93-8.04,12.84-12.61c1.19-1.39,2.27-2.92,3.16-4.52
			c8.33-15.05,16.61-30.13,24.91-45.2c0.61-1.1,1.26-2.17,1.87-3.22c2.81-0.09,5.25,0.51,7.48,1.81c0.71,0.41,1.33,0.87,1.87,1.38
			c-0.75-1.29-1.85-2.36-3.31-3.2c-2.24-1.3-4.67-1.9-7.48-1.81c-0.61,1.05-1.27,2.12-1.87,3.22c-8.3,15.07-16.57,30.15-24.91,45.2
			c-0.89,1.6-1.97,3.13-3.16,4.52C634.06,362.09,629.73,366.24,625.14,370.13z"/>
		<path d="M563.34,339.57c-3.4,6.09-5.98,12.49-6.83,19.48c-0.13,1.11-0.69,1.92-1.38,2.72c-6.83,7.81-14.65,14.39-23.82,19.31
			c-1.32,0.71-2.71,1.28-4.12,1.8c-0.74,0.28-1.56,0.41-2.36,0.45c-0.2,0.01-0.38-0.01-0.56-0.05c-0.08,1.14,0.82,1.92,1.99,1.87
			c0.79-0.04,1.62-0.17,2.36-0.45c1.4-0.53,2.8-1.1,4.12-1.8c9.17-4.92,16.99-11.5,23.82-19.31c0.69-0.79,1.24-1.6,1.38-2.72
			c0.85-6.99,3.42-13.39,6.83-19.48c7.23-12.92,17.24-23.08,30.38-29.99c8.41-4.43,17.36-6.86,26.94-6.66
			c3.16,0.07,6.19,0.66,9.08,1.95c2.21,0.99,4.05,2.3,5.5,3.87c-1.58-2.39-3.92-4.34-6.93-5.69c-2.88-1.29-5.92-1.89-9.08-1.95
			c-9.58-0.2-18.53,2.23-26.94,6.66C580.58,316.49,570.57,326.65,563.34,339.57z"/>
		<path d="M154.98,321.57c-4.56-6.11-7.38-13.16-8.72-21.01c-1.99-11.68,0.16-22.74,5.21-33.33c3.21-6.73,7.5-12.72,12.59-18.15
			c4.92-5.25,10.41-9.84,16.49-13.69c9.05-5.74,19-8.83,29.65-9.7c7.67-0.63,15.23-0.13,22.61,2.22c5.57,1.78,10.63,4.47,14.81,8.65
			c0.53,0.53,1.03,1.08,1.5,1.63c-0.87-1.2-1.84-2.35-2.94-3.45c-4.18-4.18-9.24-6.87-14.81-8.65c-7.37-2.35-14.94-2.85-22.61-2.22
			c-10.65,0.87-20.6,3.97-29.65,9.7c-6.08,3.85-11.56,8.43-16.49,13.69c-5.09,5.43-9.38,11.42-12.59,18.15
			c-5.05,10.58-7.2,21.65-5.21,33.33C146.3,307.38,149.56,315.06,154.98,321.57z"/>
		<path d="M471.13,496.43c-0.12-0.78-0.36-1.55-0.57-2.43c-0.36-0.03-0.69-0.07-1.02-0.1c0.05,0.24,0.12,0.48,0.15,0.72
			c0.36,2.47,1.39,4.64,2.92,6.57c0.32,0.41,0.65,0.8,0.98,1.2C472.32,500.61,471.46,498.64,471.13,496.43z"/>
		<path d="M213.36,497.64c-1.41-5.36,0.74-9.4,6.11-11.28c-0.23-0.7-0.58-1.36-0.86-2.02c-5.8,1.79-8.14,5.93-6.68,11.48
			c0.51,1.93,1.35,3.69,2.57,5.25c0.36,0.46,0.74,0.9,1.11,1.35C214.56,500.98,213.82,499.38,213.36,497.64z"/>
		<path d="M252.33,255.05c0.23,5.88-1.17,11.45-3.16,16.91c-1.77,4.86-4.54,9.06-8.18,12.71c-3.79,3.8-8.16,6.79-12.93,9.2
			c-6.23,3.15-12.82,5.19-19.7,6.33c-0.89,0.15-1.87,0.06-2.58,1.03c-0.02,0.35-0.09,0.8-0.05,1.25c0.24,2.52,1.16,4.48,2.61,5.79
			c-0.62-1.1-1.03-2.43-1.17-3.97c-0.04-0.45,0.04-0.9,0.05-1.25c0.72-0.97,1.7-0.88,2.58-1.03c6.88-1.14,13.47-3.18,19.7-6.33
			c4.77-2.41,9.14-5.4,12.93-9.2c3.64-3.65,6.41-7.86,8.18-12.71c1.99-5.46,3.38-11.03,3.16-16.91c-0.25-6.42-2.2-11.7-5.83-15.85
			C250.65,244.86,252.12,249.54,252.33,255.05z"/>
		<path d="M475.93,486.83c0.41-0.29,0.94-0.43,1.54-0.62c-0.3-0.67-0.59-1.32-0.89-2c-0.83,0.31-1.55,0.43-2.08,0.81
			c-1.5,1.06-2.91,2.22-4.51,3.46c-0.84,0-1.88,0.05-2.92-0.01c-8.09-0.48-16.06-1.69-23.94-3.59c-21.26-5.13-41.3-13.5-60.94-22.94
			c-0.13,0.16-0.26,0.33-0.39,0.5c0.5,0.42,0.87,0.86,1.34,1.09c19.79,9.54,39.99,18.01,61.43,23.17c7.88,1.9,15.85,3.11,23.94,3.59
			c1.03,0.06,2.07,0.01,2.92,0.01C473.01,489.06,474.43,487.89,475.93,486.83z"/>
		<path d="M123.32,384.65c1.52-3.16,3.59-5.92,6.04-8.4c7.46-7.57,16.52-12.09,26.93-13.92c8.86-1.55,17.71-1.16,26.54,0.34
			c12.37,2.1,24.12,6.2,35.63,11.07c1.04,0.44,2.11,0.83,3.05,1.21c4.05-3.56,19.12-25.53,21.62-31.41
			c-0.36-0.74-0.96-0.39-1.47-0.3c-0.26,0.05-0.51,0.09-0.77,0.14c-3.98,7.54-17.07,26.46-20.81,29.75
			c-0.95-0.37-2.01-0.77-3.05-1.21c-11.51-4.86-23.26-8.96-35.63-11.07c-8.83-1.5-17.68-1.9-26.54-0.34
			c-10.41,1.83-19.47,6.35-26.93,13.92c-2.45,2.48-4.52,5.24-6.04,8.4c-3.78,7.86-2.66,16.11,2.68,22.2
			C120.48,399.17,119.9,391.75,123.32,384.65z"/>
		<path d="M513.99,521.1c7.35,1.39,14.71,1.3,22.07,0.36c10.01-1.28,19.65-4.04,29.05-7.67c7.59-2.94,14.55-7,21.09-11.82
			c7.28-5.37,13.85-11.51,20-18.12c9.55-10.25,17.94-21.41,25.8-32.99c9.02-13.29,17.26-27.06,25.22-41
			c7.1-12.43,14.16-24.89,21.22-37.34c0.49-0.86,0.87-1.77,1.47-2.99c-1.51,0.32-2.06,1.24-2.77,1.9c-0.37,0.34-0.75,0.67-1.12,1.01
			c-6.74,11.87-13.47,23.75-20.24,35.6c-7.96,13.94-16.2,27.71-25.22,41c-7.85,11.58-16.25,22.74-25.8,32.99
			c-6.15,6.61-12.73,12.75-20,18.12c-6.53,4.82-13.5,8.88-21.09,11.82c-9.4,3.64-19.04,6.39-29.05,7.67
			c-7.36,0.94-14.73,1.03-22.07-0.36c-10.73-2.03-19.21-6.87-25.5-14.47C493.46,513.46,502.42,518.91,513.99,521.1z"/>
		<path d="M602.86,220.6c0.21,0.01,0.42,0.03,0.63,0.05l0.81,0.06v-30.37l-1.44-0.81V220.6z"/>
		<path d="M401.03,247.81v5.28l0.79-0.13c0.22-0.04,0.43-0.07,0.65-0.1v-3.22l0.57-0.09c17.49-2.82,32.56-4.19,46.08-4.19
			c7.58,0,14.38,0.43,20.78,1.1c1.39,0.14,2.76,0.31,4.12,0.47l5.21,0.7c-0.04-0.54-0.07-1.08-0.08-1.63
			c-0.11-0.02-0.23-0.04-0.34-0.05l-0.44-0.06l0.77-1.33c0.1-7.03,2.32-15.03,6.73-22.67c3.78-6.55,8.61-11.84,13.72-15.49
			l-9.18,5.3c-2.17,2.49-4.19,5.28-5.97,8.37c-5.07,8.78-7.24,18.04-6.64,25.74l-5.21-0.7c-1.36-0.17-2.73-0.33-4.12-0.47
			c-6.41-0.67-13.2-1.1-20.78-1.1c-13.52,0-28.59,1.37-46.08,4.19L401.03,247.81z"/>
		<path d="M481.91,489.74c4.82-0.65,9.54-1.74,14-3.73c13.1-5.85,20.9-15.99,23.89-29.88c1.58-7.37,1.05-14.7-1.14-21.9
			c-0.36-1.2-0.68-2.41-1.03-3.68c2.07-1.26,4.09-1.1,6.13-0.56c1.37,0.36,2.52,1.04,3.47,1.97c-0.02-0.03-0.04-0.07-0.06-0.1
			c-1.15-1.82-2.72-3.13-4.84-3.68c-2.05-0.54-4.07-0.69-6.13,0.56c0.36,1.27,0.67,2.48,1.03,3.68c2.2,7.21,2.73,14.54,1.14,21.9
			c-2.99,13.89-10.79,24.04-23.89,29.88c-4.46,1.99-9.18,3.08-14,3.73c-0.54,0.07-1.09,0.02-1.63-0.03
			c0.25,0.57,0.51,1.15,0.79,1.77C480.36,489.7,481.15,489.85,481.91,489.74z"/>
		<path d="M557.51,366.65c-0.39,0.33-0.72,0.6-1.03,0.84c0.02,0.13,0.04,0.25,0.06,0.38c0.89,5.17,2.77,9.58,5.82,13.01
			c-2.21-3.13-3.64-6.89-4.38-11.19C557.84,368.82,557.72,367.95,557.51,366.65z"/>
		<path d="M351.66,229.69c0.51,0.94,0.86,2.02,0.98,3.28c0.22,2.27,0.04,4.61-0.28,6.88c-0.48,3.43-1.51,6.76-2.9,9.94
			c-1.67,3.8-3.24,7.68-5.33,11.24c-16.61,28.23-39.14,50.3-68.42,65.27c-0.41,0.21-0.82,0.45-1.28,0.67
			c-0.38,0.73-0.79,1.53-1.34,2.59c1.92-0.15,2.97-0.89,4.05-1.45c29.27-14.98,51.81-37.04,68.42-65.27
			c2.09-3.56,3.67-7.44,5.33-11.24c1.39-3.17,2.42-6.5,2.9-9.94c0.32-2.27,0.5-4.61,0.28-6.88
			C353.87,232.59,353.02,230.88,351.66,229.69z"/>
		<path d="M480.24,247.76c4.33,0.63,8.6,1.34,12.93,2.06c1.12,0.19,2.25,0.37,3.38,0.56l0.09-1.57c-1.65-0.26-3.28-0.54-4.91-0.81
			c-3.71-0.62-7.38-1.22-11.08-1.78l-0.85,1.48L480.24,247.76z"/>
		<path d="M255.42,521c7.79,1.55,15.61,1.4,23.44,0.33c8.15-1.11,16.04-3.26,23.82-5.9c9.72-3.3,18.57-8.17,26.71-14.39
			c6.35-4.85,12.27-10.19,17.63-16.1c4.57-5.04,8.9-10.32,13.31-15.51c0.59-0.69,1.06-1.49,1.57-2.2c-0.32-0.9-0.95-1.27-1.63-1.53
			c-0.43,0.64-0.86,1.31-1.37,1.91c-4.41,5.19-8.73,10.46-13.31,15.51c-5.36,5.91-11.28,11.25-17.63,16.1
			c-8.14,6.22-16.99,11.09-26.71,14.39c-7.78,2.64-15.66,4.8-23.82,5.9c-7.83,1.06-15.65,1.22-23.44-0.33
			c-10.29-2.05-18.64-6.77-24.91-14.3C235.48,513.48,244.31,518.79,255.42,521z"/>
		<path d="M361.6,308.19c0.18,0.48,0.31,1.02,0.33,1.63c0.07,1.7-0.18,3.46-0.6,5.11c-0.85,3.38-2.45,6.46-4.26,9.42
			c-8.51,13.89-20.96,22.33-36.59,26.3c-0.25,0.47-0.44,1.01-0.87,2.03c1.12-0.09,1.69-0.05,2.22-0.18
			c15.68-3.96,28.15-12.41,36.68-26.33c1.81-2.96,3.41-6.05,4.26-9.42c0.42-1.65,0.67-3.42,0.6-5.11
			C363.3,310.02,362.64,308.85,361.6,308.19z"/>
		<path d="M401.03,272.19l0.68-0.01c0.25,0,0.5,0,0.75,0v-3.39l0.66-0.01c7.33-0.11,14.68,0.78,21.78,1.63l0.1,0.01
			c5.13,0.62,10.44,1.26,15.67,1.51c3.36,0.16,6.65,0.24,9.77,0.24c16.9,0,27.86-2.34,37.52-4.41c2.59-0.56,5.12-1.08,7.66-1.54
			l0.04-0.7l0.08-1.41c-3.07,0.52-6.1,1.17-9.22,1.84c-9.67,2.07-20.63,4.41-37.52,4.41c-3.13,0-6.41-0.08-9.77-0.24
			c-5.23-0.25-10.54-0.89-15.67-1.51l-0.1-0.01c-7.1-0.85-14.45-1.74-21.78-1.63l-0.66,0.01V272.19z"/>
		<path d="M401.03,290.68l0.72-0.05c0.23-0.02,0.48-0.03,0.71-0.04v-3.32l0.63-0.04c14.27-0.92,29.9-1.37,47.79-1.37
			c15.84,0,31.79,0.34,48.33,0.76l0.57-10.39h-0.01l0.14-2.59h0.02l0.27-4.84l0.15-2.59l0.22-3.83l0.06-1.01l0.1-1.6l0.06-0.99
			l3.04-52.7l-1.71,2.97l-2.76,47.91l-0.06,0.99l-0.1,1.6l-0.06,1.01l-0.22,3.83l-0.15,2.59l-0.27,4.84h-0.02l-0.14,2.59h0.01
			l-0.57,10.39c-16.55-0.42-32.49-0.76-48.33-0.76c-17.89,0-33.52,0.45-47.79,1.37l-0.63,0.04V290.68z"/>
		<path d="M376.29,359.6c-3.39,3.3-6.73,6.66-10.21,9.87c-4.53,4.19-9.75,7.37-15.27,10.06c-4.8,2.34-9.8,4.08-15.1,4.87
			c-4.52,0.68-8.98,0.56-13.33-0.99c-2.46-0.88-4.41-2.07-5.88-3.6c1.54,2.44,3.95,4.22,7.32,5.42c4.35,1.55,8.81,1.67,13.33,0.99
			c5.3-0.79,10.3-2.54,15.1-4.87c5.52-2.69,10.74-5.88,15.27-10.06c3.47-3.21,6.81-6.57,10.21-9.87c1.01-0.98,1.64-2.17,2.19-3.48
			c6.68-16.06,16.75-29.7,29.61-41.33c4.3-3.89,9.07-7.15,14.41-9.48c4.62-2.02,9.42-3.06,14.5-2.5c2.85,0.32,5.08,1.24,6.7,2.8
			c-1.61-2.67-4.31-4.19-8.14-4.62c-5.08-0.56-9.88,0.48-14.5,2.5c-5.34,2.33-10.11,5.59-14.41,9.48
			c-12.86,11.62-22.93,25.27-29.61,41.33C377.93,357.43,377.3,358.62,376.29,359.6z"/>
	</g>
	<g>
		<path class="st8" d="M525.15,471.72c-0.62-0.01-1.25-0.03-1.87-0.06c-0.93-0.06-1.79-0.08-2.63-0.08c-0.88,0-1.75,0.03-2.57,0.1
			c-0.53,0.04-1.07,0.05-1.6,0.05c0,0-0.33,0-0.33,0c-0.27,0-0.53-0.04-0.78-0.11c-0.55-0.15-0.95-0.62-1-1.21
			c-0.06-0.62,0.3-1.16,0.92-1.36c0.19-0.06,0.38-0.11,0.57-0.16l0.13-0.03c0.52-0.13,0.9-0.26,1.19-0.5
			c0.48-0.39,0.76-0.83,0.88-1.36c0.19-0.82,0.34-1.73,0.47-2.87l0.9-7.8l0.45-3.71c0.08-0.65,0.41-3.58,0.41-3.58l0.62-5.31
			c0.14-1.19,0.52-4.55,0.52-4.55c0.08-0.72,0.16-1.45,0.25-2.17c0.04-0.33,0.12-0.66,0.25-0.98c0.24-0.62,0.77-1.01,1.38-1.01
			c0.36,0,0.72,0.14,1.02,0.4c0.28,0.24,0.52,0.54,0.73,0.9c0.2,0.33,0.37,0.68,0.54,1.03l10.9,21.53c0.21,0.41,0.43,0.82,0.66,1.22
			c0.34-0.63,0.67-1.27,0.98-1.92c2.6-5.42,10.39-21.64,10.39-21.64s0.17-0.37,0.24-0.49c0.07-0.14,0.15-0.29,0.28-0.45
			c0.17-0.2,0.61-0.74,1.38-0.74c0.08,0,0.17,0.01,0.26,0.02c0.43,0.07,1.01,0.34,1.3,1.2c0.09,0.27,0.15,0.51,0.18,0.74l0.7,5.43
			c0.08,0.59,0.45,3.32,0.45,3.32l1.85,14.37l0.26,2.07c0.13,1.05,0.26,2.11,0.4,3.16l0.04,0.28c0.08,0.65,0.16,1.27,0.37,1.81
			c0.1,0.24,0.19,0.49,0.32,0.72c0.23,0.44,0.58,0.67,1.12,0.77l0.26,0.04c0.16,0.02,0.32,0.05,0.48,0.08
			c0.61,0.13,1.07,0.65,1.11,1.25c0.05,0.65-0.39,1.27-1.03,1.43c-0.37,0.09-0.72,0.17-1.12,0.17l-0.49,0
			c-0.59,0-1.18-0.01-1.77-0.05c-1.16-0.07-2.19-0.1-3.16-0.1c-1,0-1.92,0.04-2.81,0.11c-0.46,0.04-0.93,0.05-1.4,0.05
			c-0.33,0-0.67-0.01-1-0.01l-0.59-0.01c-0.33,0-0.69-0.09-1.06-0.24c-0.47-0.2-0.78-0.66-0.8-1.17c-0.02-0.51,0.25-0.98,0.7-1.21
			c0.35-0.18,0.73-0.29,1.02-0.35c0.22-0.05,0.45-0.08,0.67-0.11l0.24-0.03c0.21-0.03,0.45-0.12,0.7-0.53c0.16-0.27,0.26-0.6,0.3-1
			c0.09-0.85,0.12-1.69,0.08-2.49c-0.05-1.25-0.19-2.49-0.33-3.64c-0.09-0.77-0.18-1.54-0.26-2.31l-0.18-1.59l-0.6-5.16
			c0,0-7.66,16.04-8.53,17.86c-0.15,0.3-0.33,0.66-0.55,1.01c-0.17,0.27-0.63,0.99-1.43,0.99c-0.79,0-1.24-0.68-1.41-0.94
			c-0.19-0.28-0.35-0.58-0.5-0.89l-9.19-18.16l-0.34,3.04l-0.25,2.15c-0.12,1.05-0.25,2.1-0.36,3.15c-0.14,1.3-0.26,2.59-0.38,3.89
			l-0.04,0.45c-0.05,0.57-0.08,1.13-0.12,1.7c-0.03,0.47,0.01,0.98,0.12,1.55c0.03,0.16,0.09,0.32,0.14,0.48
			c0.03,0.09,0.08,0.19,0.26,0.28c0.24,0.12,0.52,0.21,0.88,0.28l0.3,0.06c0.32,0.06,0.64,0.12,0.95,0.19
			c0.88,0.21,1.13,0.75,1.19,1.17c0.09,0.68-0.41,1.34-1.17,1.52c-0.21,0.05-0.45,0.08-0.69,0.08
			C525.45,471.73,525.15,471.72,525.15,471.72z"/>
		<path class="st8" d="M438.4,471.73c-0.43,0-0.79-0.1-1.11-0.29c-0.53-0.33-0.79-0.92-0.66-1.49c0.12-0.56,0.53-0.97,1.08-1.08
			c0.16-0.03,0.76-0.13,0.89-0.16l0.37-0.07c0.38-0.07,0.77-0.14,1.15-0.24c0.19-0.05,0.29-0.15,0.36-0.35
			c0.16-0.52,0.28-0.95,0.32-1.37c0.1-1.03,0.15-1.95,0.15-2.79c0.01-7.12,0.01-14.25,0-21.38v-0.3c0-0.74,0-1.43-0.11-2.09
			c-0.03-0.18-0.07-0.35-0.12-0.53c-0.15-0.55-0.42-0.79-0.94-0.88c-0.21-0.03-0.41-0.08-0.61-0.12l-0.19-0.04
			c-0.21-0.04-0.35-0.07-0.49-0.12c-0.62-0.21-0.99-0.72-0.98-1.33c0.01-0.64,0.47-1.18,1.13-1.31c0.24-0.05,0.48-0.07,0.72-0.07
			l0.45,0.01c0.64,0.01,1.28,0.02,1.92,0.06c1.02,0.06,1.92,0.09,2.74,0.09c0.94,0,1.8-0.04,2.63-0.12
			c0.63-0.06,1.26-0.12,1.89-0.16c0.41-0.03,0.82-0.05,1.22-0.05c0.26,0,0.51,0.04,0.78,0.11c0.61,0.17,1.03,0.73,1.02,1.37
			s-0.42,1.16-1.05,1.32c-0.13,0.03-0.27,0.06-0.4,0.09c-0.13,0.03-0.25,0.05-0.38,0.09c-0.34,0.1-0.68,0.22-1.01,0.35
			c-0.24,0.1-0.43,0.26-0.54,0.75c-0.16,0.68-0.16,1.43-0.17,2.09c-0.02,1.44-0.02,2.88-0.02,4.32c0,0,0,4.8,0,4.88
			c0,0,15.61,0,15.71,0l0-9.71c0-0.48-0.05-0.9-0.14-1.3c-0.03-0.11-0.06-0.22-0.1-0.33l-0.03-0.1c-0.08-0.27-0.24-0.57-0.8-0.73
			c-0.17-0.05-0.33-0.08-0.5-0.12c-0.13-0.03-0.27-0.06-0.4-0.09c-0.26-0.06-0.49-0.12-0.73-0.23c-0.42-0.19-0.65-0.59-0.73-0.91
			c-0.15-0.58,0.13-1.18,0.67-1.46c0.21-0.11,0.44-0.18,0.66-0.2c0.19-0.02,0.38-0.03,0.57-0.03l0.96,0.02
			c0.74,0.02,1.49,0.03,2.23,0.07c0.76,0.04,1.52,0.06,2.28,0.06c0.81,0,1.63-0.02,2.44-0.06c0.77-0.04,1.53-0.05,2.3-0.07
			c0,0,0.51-0.01,0.52-0.01c0.34,0,0.57,0.03,0.77,0.08c0.56,0.15,0.96,0.63,1,1.22c0.04,0.6-0.3,1.13-0.86,1.35
			c-0.16,0.06-0.32,0.11-0.48,0.16l-0.49,0.14c-0.24,0.07-0.48,0.13-0.71,0.22c-0.45,0.17-0.58,0.39-0.64,0.68
			c-0.15,0.7-0.23,1.33-0.25,1.93c-0.02,0.61-0.03,1.22-0.03,1.83l0,1.63c0,4.91,0,9.82,0,14.73v0.2c0,2.05,0.01,4.16,0.18,6.22
			c0.04,0.42,0.1,0.84,0.17,1.26l0.04,0.26c0.01,0.05,0.03,0.11,0.05,0.16l0.04,0.11c0.1,0.32,0.27,0.41,0.41,0.46
			c0.37,0.13,0.75,0.23,1.13,0.32l0.2,0.05c0.15,0.04,0.3,0.06,0.46,0.09l0.3,0.05c0.12,0.02,0.24,0.05,0.35,0.09
			c0.56,0.21,0.94,0.78,0.9,1.35c-0.05,0.62-0.45,1.1-1,1.24c-0.34,0.08-0.67,0.17-1.05,0.17l-0.82,0c-0.54,0-1.09-0.01-1.63-0.04
			c-1.2-0.07-2.43-0.11-3.66-0.11c-1.26,0-2.57,0.04-3.87,0.12c-0.49,0.03-0.98,0.03-1.47,0.04c0,0-0.38,0-0.38,0
			c-0.37,0-0.8-0.04-1.21-0.33c-0.34-0.25-0.55-0.67-0.53-1.1c0.01-0.42,0.23-0.79,0.58-1.01c0.23-0.14,0.5-0.25,0.77-0.31
			c0.2-0.05,0.41-0.09,0.61-0.13c0.19-0.04,0.39-0.07,0.58-0.12c0.2-0.05,0.4-0.12,0.59-0.2c0.26-0.1,0.38-0.26,0.43-0.54
			c0.05-0.3,0.1-0.59,0.13-0.89c0.15-1.29,0.22-2.64,0.22-3.99c-0.01-1.8,0-3.6,0-5.4l0-2.37c0,0-15.68,0-15.7,0
			c0,0.03,0,0.06,0,0.09c0,2-0.01,3.99,0,5.99c0,1.35,0.02,2.71,0.03,4.06l0,0.38c0,0.55,0.07,1.07,0.18,1.57
			c0.1,0.42,0.26,0.7,0.51,0.9c0.16,0.12,0.3,0.2,0.43,0.22c0.18,0.03,0.35,0.06,0.53,0.09c0.18,0.03,0.36,0.06,0.54,0.09
			c0.28,0.05,0.57,0.11,0.84,0.19c0.55,0.16,0.94,0.64,0.98,1.23c0.05,0.67-0.34,1.24-0.97,1.43c-0.37,0.11-0.68,0.16-0.97,0.16
			l-0.2,0c-0.57,0-1.14-0.02-1.7-0.04c-0.36-0.01-0.72-0.03-1.07-0.05c-0.58-0.03-1.16-0.05-1.73-0.06
			c-0.58-0.01-1.16-0.01-1.74-0.01c-1.58,0-2.86,0.04-4.04,0.12c-0.38,0.03-0.76,0.03-1.14,0.04
			C438.92,471.73,438.4,471.73,438.4,471.73z"/>
		<path class="st8" d="M571.42,430.45c-0.34,0-0.68-0.01-1.02-0.03c-1.38-0.1-2.79-0.15-4.31-0.15c-1.43,0-2.92,0.04-4.58,0.13
			c-0.49,0.03-0.97,0.04-1.46,0.04l-0.15,0c-0.28,0-0.58-0.05-0.92-0.16c-0.58-0.19-0.96-0.72-0.97-1.35c0-0.63,0.42-1.17,1.06-1.33
			c0.22-0.06,0.45-0.1,0.68-0.13c0,0,1.08-0.17,1.3-0.21c0.07-0.01,0.14-0.03,0.21-0.05l0.16-0.04c0.29-0.07,0.43-0.21,0.51-0.5
			c0.12-0.43,0.24-0.87,0.27-1.27c0.08-0.89,0.16-1.85,0.16-2.8c0.01-6.11,0.01-12.22,0.01-18.32l0-3.06c0-0.5-0.01-1-0.03-1.5
			c-0.02-0.51-0.07-1.05-0.25-1.54c-0.18-0.5-0.45-0.63-0.69-0.7c-0.21-0.05-0.42-0.1-0.63-0.14l-0.41-0.09
			c-0.24-0.05-0.42-0.1-0.58-0.16c-0.55-0.22-0.88-0.75-0.85-1.35c0.04-0.57,0.43-1.05,0.98-1.19c0.24-0.06,0.54-0.13,0.86-0.13
			l0.31,0c0.41,0,0.82,0.01,1.22,0.03s0.82,0.04,1.23,0.06c0.47,0.03,0.94,0.05,1.41,0.07c0.28,0.01,0.57,0.02,0.85,0.02
			c1.45,0,2.88-0.13,4.48-0.28c0.51-0.05,1.02-0.06,1.45-0.06c0.28,0,0.58,0.06,0.88,0.19c0.54,0.22,0.86,0.75,0.82,1.36
			c-0.04,0.59-0.43,1.08-0.98,1.23c-0.15,0.04-0.3,0.07-0.44,0.1c-0.12,0.02-0.24,0.05-0.35,0.08c-0.37,0.11-0.73,0.24-1.08,0.37
			c-0.18,0.07-0.38,0.19-0.5,0.69c-0.16,0.66-0.18,1.37-0.19,2.16c-0.02,1.1-0.02,2.2-0.02,3.3v0.74c0,1.71,0,3.42,0,5.13
			c0,0,15.6,0,15.71,0c0-3.07,0-6.15,0-9.22c0-0.64,0-1.24-0.15-1.79c-0.05-0.19-0.1-0.37-0.17-0.55c-0.14-0.34-0.33-0.44-0.48-0.49
			c-0.26-0.09-0.52-0.16-0.79-0.22l-0.55-0.14c-0.15-0.04-0.3-0.08-0.44-0.12c-0.53-0.17-0.88-0.66-0.89-1.24
			c0-0.6,0.34-1.09,0.88-1.27c0.27-0.09,0.54-0.14,0.79-0.15c0.23,0,0.46-0.01,0.69-0.01c0.26,0,0.52,0,0.78,0.01
			c0.4,0.01,0.8,0.03,1.2,0.05c0.56,0.03,1.12,0.05,1.68,0.06c0.47,0.01,0.94,0.01,1.41,0.01c0.48,0,0.96,0,1.44-0.02
			c0.74-0.02,1.47-0.04,2.21-0.07l1.53-0.05c0.21,0,0.41,0.01,0.61,0.04c0.63,0.1,1.1,0.58,1.18,1.19c0.08,0.62-0.26,1.2-0.89,1.45
			c-0.13,0.05-0.27,0.09-0.41,0.13l-0.46,0.13c-0.26,0.07-0.51,0.15-0.76,0.24c-0.52,0.19-0.6,0.44-0.64,0.67
			c-0.1,0.7-0.21,1.4-0.27,2.11c-0.04,0.4-0.03,0.8-0.03,1.21v1.98c0,4.96,0,9.92,0,14.89c0,2.34,0.02,4.29,0.19,6.29
			c0.04,0.47,0.11,0.94,0.17,1.41l0.02,0.14c0.01,0.06,0.03,0.11,0.05,0.16l0.04,0.12c0.11,0.36,0.3,0.47,0.47,0.53
			c0.36,0.13,0.74,0.22,1.11,0.31l0.16,0.04c0.15,0.04,0.29,0.06,0.44,0.09c0.16,0.03,0.33,0.06,0.49,0.1
			c0.64,0.15,1.1,0.68,1.1,1.31c0.01,0.6-0.38,1.14-0.98,1.34c-0.25,0.08-0.48,0.13-0.7,0.14c-0.33,0.02-0.66,0.04-0.99,0.04
			l-0.18,0c-0.7-0.01-1.4-0.03-2.1-0.07c-0.99-0.06-2-0.09-3.09-0.09c-1.17,0-2.41,0.04-3.81,0.11c-0.62,0.03-1.23,0.05-1.85,0.06
			c-0.35,0-0.66-0.06-0.92-0.11c-0.68-0.15-1.12-0.79-0.99-1.44c0.07-0.36,0.33-0.85,0.82-1.04c0.21-0.08,0.44-0.14,0.66-0.19
			l0.63-0.15c0.32-0.08,0.63-0.15,0.94-0.25c0.32-0.1,0.46-0.28,0.5-0.62l0.09-0.79c0.1-0.85,0.19-1.65,0.21-2.45
			c0.04-2.52,0.04-5.04,0.04-7.56v-1.8c0,0-15.68,0-15.7,0c0,0.03,0,1.4,0,1.4c0,2.61,0,5.23,0,7.84c0,0.59,0.01,1.29,0.08,1.96
			c0.05,0.49,0.14,0.92,0.26,1.27c0.15,0.43,0.42,0.66,0.88,0.75c0.18,0.03,0.36,0.06,0.54,0.09c0.18,0.03,0.36,0.05,0.54,0.09
			c0.26,0.05,0.52,0.12,0.78,0.19c0.55,0.16,0.92,0.62,0.98,1.21c0.06,0.67-0.35,1.28-1,1.45c-0.35,0.1-0.65,0.15-0.93,0.15
			C571.79,430.45,571.61,430.45,571.42,430.45z"/>
		<path class="st8" d="M495.22,472.42c-3.44,0-6.71-0.93-9.69-2.78c-4.05-2.5-6.75-6.09-8.01-10.68c-0.52-1.88-0.71-3.94-0.58-6.13
			c0.12-2.07,0.46-3.89,1.04-5.56c1.07-3.13,2.8-5.74,5.12-7.76c1.73-1.5,3.79-2.64,6.11-3.39c1.82-0.58,3.76-0.89,5.79-0.93l0.42,0
			c1.61,0,3.1,0.17,4.55,0.51c1.93,0.45,3.8,1.25,5.55,2.36c3.69,2.34,6.26,5.68,7.66,9.91c0.51,1.54,0.77,3.2,0.79,4.92
			c0.03,2.84-0.39,5.57-1.25,8.11c-0.85,2.49-2.17,4.65-3.92,6.43c-1.7,1.72-3.79,3.03-6.22,3.89c-2.09,0.74-4.35,1.1-6.89,1.1
			L495.22,472.42z M494.7,439.1c-0.56,0-1.14,0.05-1.71,0.14c-1.16,0.18-2.14,0.58-3.01,1.19c-1.25,0.89-2.25,2.01-2.99,3.33
			c-0.75,1.34-1.28,2.78-1.58,4.27c-0.21,1.04-0.41,2.16-0.45,3.28c-0.05,1.32-0.01,2.51,0.11,3.64c0.23,2.09,0.68,3.96,1.39,5.72
			c0.85,2.12,1.95,3.8,3.38,5.13c1.73,1.62,3.66,2.49,5.89,2.68c0.27,0.02,0.54,0.03,0.8,0.03c1.96,0,3.64-0.63,5.13-1.93
			c1.37-1.2,2.39-2.68,3.13-4.55c0.79-1.97,1.24-4.24,1.23-6.21c-0.03-2.65-0.26-4.64-0.77-6.66c-0.48-1.88-1.16-3.5-2.08-4.98
			c-0.99-1.59-2.18-2.83-3.65-3.77c-0.97-0.63-2.02-1.02-3.19-1.21C495.78,439.15,495.24,439.1,494.7,439.1z"/>
		<path class="st8" d="M450.64,430.64c-0.74,0-1.53-0.03-2.42-0.08c-0.73-0.04-1.46-0.1-2.19-0.16l-0.59-0.05
			c-0.67-0.05-1.38-0.08-2.1-0.08c-0.67,0-1.34,0.02-2.01,0.06c-0.71,0.04-1.43,0.07-2.14,0.09l-0.82,0.03
			c-0.21,0-0.38-0.02-0.54-0.06c-0.29-0.07-0.58-0.21-0.82-0.39c-0.34-0.26-0.53-0.67-0.5-1.1c0.03-0.44,0.27-0.84,0.65-1.06
			c0.22-0.13,0.47-0.22,0.71-0.25c0.17-0.02,0.34-0.04,0.51-0.06c0.15-0.01,0.3-0.03,0.44-0.05l0.16-0.02
			c0.31-0.05,0.62-0.09,0.92-0.18c0.49-0.14,0.57-0.37,0.6-0.6l0.04-0.28c0.11-0.74,0.21-1.44,0.27-2.14
			c0.18-2.27,0.18-4.6,0.18-6.85l0-16.35c0-0.5,0-1.01-0.02-1.51c-0.01-0.34-0.05-0.67-0.08-1l-0.04-0.42
			c-0.02-0.19-0.07-0.37-0.48-0.53c-0.19-0.08-0.44-0.12-0.65-0.15c-0.26-0.04-0.52-0.07-0.78-0.09c-0.23-0.02-0.45-0.05-0.68-0.08
			c-0.25-0.03-0.5-0.11-0.73-0.23c-0.36-0.18-0.61-0.53-0.66-0.94c-0.05-0.42,0.1-0.83,0.41-1.1c0.11-0.09,0.36-0.32,0.73-0.39
			l0.15-0.03c0.31-0.07,0.66-0.14,1.04-0.15l0.24,0c0.31,0,0.63,0.01,0.94,0.03l1.84,0.06c1.04,0.03,2.09,0.07,3.13,0.08
			c0.34,0,0.69,0.01,1.04,0.01l2.63-0.01c0.58,0,1.17,0,1.75,0.02c2.85,0.07,5.29,0.96,7.26,2.66c1.63,1.4,2.64,3.11,3.01,5.07
			c0.02,0.07,0.03,0.14,0.04,0.22c0.22,2.31,0.01,4.06-0.69,5.67c-0.63,1.45-1.6,2.53-2.87,3.22c-0.01,0-0.01,0.01-0.02,0.01
			c0.46,0.2,0.94,0.43,1.43,0.7c2.02,1.1,3.5,2.69,4.4,4.72c0.31,0.71,0.53,1.48,0.65,2.31c0.21,1.53,0.16,2.9-0.16,4.21
			c-0.41,1.7-1.38,3.18-2.87,4.4c-0.97,0.78-2.14,1.4-3.6,1.9c-1.14,0.39-2.29,0.58-3.26,0.71
			C453.01,430.57,451.89,430.64,450.64,430.64z M448.49,422.01c0,0.77,0,1.54,0.03,2.32c0.02,0.72,0.08,1.31,0.28,1.82
			c0.26,0.68,0.65,0.82,0.99,0.88c0.14,0.02,0.28,0.03,0.42,0.04c0.18,0.01,0.35,0.01,0.53,0.01c0.61,0,1.26-0.06,1.92-0.18
			c0.99-0.18,1.78-0.54,2.43-1.09c0.93-0.79,1.47-1.71,1.64-2.82c0.14-0.9,0.14-1.81,0-2.76c-0.38-2.49-1.64-4.25-3.84-5.39
			c-0.97-0.5-2.07-0.81-3.26-0.91c-0.27-0.02-0.54-0.03-0.81-0.03c-0.11,0-0.21,0-0.32,0L448.49,422.01z M450.42,409.97
			c0.69,0,1.23-0.04,1.74-0.13c0.83-0.14,1.38-0.53,1.72-1.22c0.12-0.25,0.22-0.49,0.29-0.74c0.2-0.67,0.28-1.42,0.27-2.45
			c-0.02-1.87-0.62-3.47-1.84-4.9c-0.74-0.87-1.59-1.47-2.59-1.82c-0.39-0.14-0.75-0.21-1.1-0.21c-0.13,0-0.26,0.01-0.39,0.03
			c-0.03,0.28-0.03,0.51-0.03,0.73c0,0,0,10.66,0,10.7l1.17,0C449.66,409.97,450.42,409.97,450.42,409.97z"/>
		<path class="st8" d="M512.28,430.45c-0.25-0.01-0.48-0.04-0.69-0.1c-0.63-0.18-1.03-0.73-0.96-1.34c0.04-0.38,0.22-0.74,0.49-0.98
			c0.24-0.21,0.52-0.32,0.76-0.39c0.19-0.06,0.38-0.1,0.57-0.15l0.31-0.07c0.39-0.12,0.47-0.19,0.47-0.19h0
			c-0.02,0-0.02-0.22-0.02-0.29c0.01-0.78-0.13-1.54-0.44-2.35c-0.36-0.96-0.73-1.93-1.1-2.89l-0.5-1.3
			c-0.11-0.29-0.22-0.59-0.35-0.88c-0.1-0.23-0.21-0.46-0.32-0.69l-0.13-0.27c-0.22-0.03-0.4-0.03-0.57-0.03
			c-0.03,0-0.96-0.01-0.96-0.01s-8.01,0-8.03,0c-0.02,0.05-0.05,0.11-0.08,0.19c-0.22,0.56-0.45,1.11-0.67,1.67
			c-0.57,1.39-1.16,2.83-1.61,4.27c-0.2,0.62-0.39,1.29-0.43,1.94l-0.02,0.28c0,0.04,0,0.07,0,0.09c0.03,0.01,0.06,0.03,0.1,0.04
			c0.3,0.12,0.65,0.19,1.02,0.26c0.22,0.04,0.43,0.08,0.65,0.13c0.27,0.06,0.54,0.13,0.79,0.23c0.61,0.23,0.98,0.8,0.91,1.43
			c-0.06,0.61-0.45,1.09-1.01,1.25c-0.27,0.08-0.54,0.12-0.81,0.12l-0.31-0.01c-0.67-0.01-1.33-0.03-2-0.08
			c-0.66-0.05-1.36-0.08-2.08-0.08c-0.3,0-0.6,0-0.9,0.01c-0.38,0.01-0.77,0.04-1.15,0.06c-0.32,0.02-0.64,0.04-0.96,0.05
			c-0.63,0.03-1.27,0.04-1.9,0.04c-0.28,0-0.56-0.04-0.87-0.11c-0.6-0.14-1.02-0.64-1.07-1.26c-0.06-0.69,0.36-1.29,1.02-1.44
			c0.28-0.07,0.56-0.12,0.84-0.15c1.09-0.09,1.81-0.6,2.28-1.61c0.33-0.71,0.65-1.42,0.95-2.14c2.79-6.77,11.15-27.07,11.15-27.07
			l0.26-0.63c0.19-0.47,0.38-0.94,0.58-1.41c0.11-0.25,0.25-0.58,0.47-0.9c0.28-0.43,0.71-0.68,1.19-0.68
			c0.48,0,0.92,0.26,1.21,0.71c0.16,0.25,0.31,0.54,0.46,0.9c0.41,0.99,0.82,1.98,1.23,2.97l7.7,18.76
			c1.17,2.86,2.35,5.71,3.53,8.57c0.29,0.7,0.61,1.31,0.99,1.86c0.15,0.22,0.27,0.28,0.42,0.3c0.5,0.08,1,0.18,1.5,0.29
			c0.25,0.05,0.49,0.13,0.7,0.22c0.59,0.27,0.91,0.87,0.82,1.53c-0.09,0.61-0.51,1.06-1.11,1.19c-0.3,0.07-0.57,0.1-0.82,0.1l-0.3,0
			c-0.55-0.01-1.11-0.01-1.68-0.06c-0.72-0.07-1.56-0.1-2.48-0.1l-0.63,0l-5.39,0.16c-0.17,0-0.34,0.01-0.51,0.01
			S512.45,430.46,512.28,430.45z M508.81,414.29c-0.85-2.15-2.97-7.47-3.18-7.99l-3.14,7.99l3.1,0L508.81,414.29z"/>
		<path class="st8" d="M478.56,430.36c-0.53-0.01-1.07-0.02-1.64-0.04l-0.8-0.02c0,0-2.06-0.01-2.56-0.01
			c-0.97,0-2.25,0.01-3.54,0.1c-0.66,0.05-1.33,0.05-1.99,0.06c0,0-0.46,0-0.46,0c-0.37,0-0.67-0.03-0.97-0.07
			c-0.27-0.04-0.54-0.13-0.78-0.27c-0.43-0.24-0.68-0.71-0.66-1.2c0.02-0.5,0.32-0.94,0.77-1.15c0.22-0.1,0.42-0.14,0.57-0.17
			l0.29-0.06c0.44-0.09,0.89-0.18,1.33-0.26c0.51-0.09,0.71-0.3,0.77-0.81c0.09-0.78,0.18-1.56,0.24-2.34
			c0.17-2.11,0.17-4.29,0.17-6.39l0-18.19c0-0.38,0-0.71-0.08-1c-0.08-0.27-0.21-0.47-0.41-0.65c-0.36-0.31-0.81-0.52-1.4-0.64
			c0,0-0.62-0.12-0.76-0.15c-0.2-0.04-0.39-0.11-0.55-0.2c-0.42-0.22-0.69-0.66-0.69-1.13c0-0.47,0.26-0.89,0.68-1.11
			c0.24-0.12,0.48-0.2,0.71-0.22c0.23-0.03,0.47-0.04,0.7-0.04l0.34,0.01c0.59,0.01,1.18,0.02,1.77,0.06
			c1.35,0.08,2.76,0.11,4.19,0.11c1.32,0,2.72-0.03,4.14-0.1c1.81-0.08,3.63-0.08,5.4-0.08h0.47c0.71,0,1.51,0,2.25-0.12
			c0.21-0.03,0.43-0.05,0.66-0.05l0.32,0c0.77,0.02,1.29,0.51,1.38,1.24c0.02,0.18,0.03,0.38,0.02,0.57c-0.04,0.72,0,1.46,0.05,2.23
			l0.01,0.22c0.04,0.59,0.04,1.19,0.04,1.79l0,0.33c0,0.66-0.44,1.2-1.07,1.31c-0.06,0.01-0.2,0.02-0.26,0.02
			c-0.53,0-1-0.3-1.24-0.77c-0.08-0.17-0.14-0.34-0.19-0.51c-0.03-0.11-0.04-0.21-0.06-0.32l-0.02-0.11
			c-0.16-0.87-0.74-1.45-1.58-1.6c-0.46-0.08-0.9-0.13-1.3-0.13c-1.09-0.01-2.18-0.02-3.27-0.02l-2.19,0
			c-0.16,0-0.34,0.03-0.56,0.08c-0.01,0.15-0.01,0.28-0.01,0.41l0,10.45l2.33,0c0.92,0,1.83,0,2.75-0.01c0.37,0,0.76-0.04,1.16-0.12
			c0.32-0.06,0.41-0.19,0.46-0.4l0.34-1.44c0.04-0.17,0.08-0.34,0.13-0.51c0.28-0.86,0.95-0.97,1.22-0.98h0
			c0.66,0,1.15,0.42,1.3,1.07c0.05,0.23,0.1,0.49,0.11,0.78l0.01,0.29c0.01,0.42,0.02,0.85-0.02,1.31c-0.15,1.4-0.1,2.84-0.05,4.23
			l0.01,0.27c0.01,0.31,0.03,0.62,0.02,0.94c0,0.3-0.04,0.62-0.11,0.95c-0.1,0.49-0.5,0.81-0.81,0.93
			c-0.12,0.05-0.34,0.09-0.47,0.09c-0.46,0-0.88-0.25-1.11-0.65c-0.11-0.2-0.2-0.42-0.26-0.67c-0.06-0.23-0.31-1.31-0.31-1.31
			c-0.02-0.09-0.06-0.18-0.1-0.26c-0.13-0.31-0.25-0.32-0.37-0.33c-0.15-0.01-0.29-0.03-0.44-0.04c-0.23-0.02-0.46-0.05-0.7-0.05
			c-0.92-0.01-1.84-0.01-2.76-0.01l-2.33,0c0,3.66,0,7.32,0,10.98l0.01,0.58c0,0.28,0.09,0.5,0.5,0.68
			c0.28,0.12,0.62,0.21,1.05,0.28c0.72,0.11,1.5,0.16,2.39,0.16c0.77,0,1.56-0.04,2.16-0.08c0.56-0.03,1.05-0.06,1.47-0.2l0.28-0.09
			c0.13-0.04,0.27-0.08,0.4-0.13c0.36-0.14,0.65-0.35,0.87-0.65c0.28-0.38,0.52-0.79,0.73-1.27c0.12-0.27,0.26-0.5,0.43-0.71
			c0.24-0.3,0.6-0.47,0.98-0.47c0.49,0,0.96,0.3,1.18,0.76c0.19,0.41,0.23,0.86,0.12,1.35c-0.08,0.33-0.18,0.66-0.29,0.97
			c-0.16,0.45-0.33,0.89-0.49,1.34c-0.23,0.62-0.46,1.24-0.68,1.86c-0.24,0.69-0.73,1.15-1.44,1.38c-0.37,0.12-0.77,0.18-1.24,0.18
			C485.22,430.46,478.56,430.36,478.56,430.36z"/>
		<path class="st8" d="M563.77,471.72c-0.37,0-0.69-0.08-0.98-0.15c-0.63-0.15-1.04-0.63-1.08-1.24c-0.05-0.66,0.42-1.27,1.1-1.41
			c0.19-0.04,0.38-0.07,0.58-0.1c0.17-0.03,0.33-0.05,0.5-0.09c0.38-0.08,0.75-0.17,1.12-0.28c0.15-0.04,0.29-0.11,0.38-0.45
			c0.15-0.6,0.21-1.25,0.25-1.87c0.11-1.58,0.23-3.67,0.23-5.78c-0.01-4.39,0-8.78,0-13.17v-6.15c0-0.5,0-0.87-0.09-1.19
			c-0.08-0.28-0.21-0.48-0.44-0.67c-0.35-0.3-0.79-0.49-1.36-0.61l-0.3-0.06c-0.18-0.04-0.36-0.07-0.54-0.11
			c-0.21-0.05-0.41-0.13-0.6-0.25c-0.36-0.23-0.58-0.62-0.58-1.04c0-0.42,0.2-0.8,0.55-1.03c0.25-0.16,0.48-0.26,0.72-0.3
			c0.21-0.04,0.44-0.05,0.65-0.05c0,0,0.66,0.01,0.66,0.01c0.6,0.01,1.2,0.02,1.8,0.05c1.2,0.07,2.47,0.1,3.87,0.1
			c1.65,0,3.25-0.04,4.6-0.09c1.33-0.04,2.66-0.05,3.98-0.06l1.67-0.01c0.72,0,1.41-0.01,2.07-0.11c0.24-0.04,0.47-0.05,0.71-0.05
			l0.41,0c0.63,0.01,1.16,0.46,1.28,1.09c0.05,0.24,0.06,0.45,0.04,0.66c-0.06,0.67-0.01,1.35,0.04,2.07l0.04,0.56
			c0.03,0.48,0.04,0.95,0.05,1.42l0,0.15c0,0.2-0.01,0.4-0.03,0.6c-0.07,0.57-0.47,1.01-1.03,1.12c-0.1,0.02-0.21,0.03-0.31,0.03
			c-0.52,0-0.98-0.28-1.19-0.74c-0.14-0.29-0.23-0.58-0.27-0.88c-0.04-0.27-0.12-0.5-0.23-0.72c-0.28-0.53-0.71-0.85-1.33-0.99
			c-0.38-0.08-0.76-0.13-1.13-0.13c-1.18-0.01-2.36-0.02-3.54-0.02l-2.24,0c-0.13,0-0.3,0.04-0.44,0.07
			c-0.01,0.14-0.01,0.27-0.01,0.4c0,3.49,0,6.98,0,10.46h0.94c1.42,0,2.85,0,4.27-0.01c0.27,0,0.58-0.03,0.99-0.1
			c0.37-0.06,0.47-0.2,0.52-0.46l0.11-0.5c0.07-0.3,0.13-0.59,0.21-0.89c0.06-0.26,0.15-0.52,0.26-0.77
			c0.19-0.42,0.64-0.71,1.11-0.71c0.06,0,0.13,0.01,0.18,0.01c0.32,0.05,0.76,0.26,0.98,0.69c0.13,0.26,0.2,0.55,0.21,0.84
			l0.02,0.39c0.02,0.44,0.05,0.89,0,1.36c-0.14,1.4-0.11,2.83-0.06,4.17l0,0.14c0.01,0.42,0.03,0.83,0.03,1.25
			c0,0.28-0.03,0.56-0.07,0.84c-0.09,0.66-0.62,1.15-1.26,1.16c0,0,0,0,0,0c-0.59,0-1.08-0.33-1.29-0.86
			c-0.06-0.15-0.11-0.32-0.15-0.49c0,0-0.23-1.03-0.29-1.27c-0.02-0.07-0.05-0.15-0.08-0.22c-0.15-0.36-0.29-0.37-0.43-0.38
			l-0.43-0.04c-0.24-0.02-0.49-0.04-0.73-0.04c-0.91,0-1.83-0.01-2.74-0.01l-2.31,0c0,3.05,0,11.03,0,11.03
			c0,0.11,0.01,0.22,0.01,0.33c0.03,0.61,0.23,0.85,0.82,0.99c0.53,0.13,1.05,0.21,1.55,0.25c0.64,0.05,1.27,0.07,1.88,0.07
			c0.99,0,1.95-0.06,2.86-0.19c0.37-0.05,0.76-0.17,1.22-0.34c0.34-0.12,0.6-0.33,0.79-0.61c0.19-0.3,0.36-0.61,0.54-0.92l0.31-0.55
			c0.09-0.17,0.19-0.35,0.32-0.5c0.24-0.3,0.6-0.47,0.98-0.47c0.52,0,0.99,0.31,1.19,0.79c0.18,0.42,0.21,0.89,0.08,1.39
			c-0.09,0.36-0.2,0.73-0.33,1.08c-0.15,0.42-0.31,0.83-0.46,1.25c-0.21,0.56-0.42,1.13-0.62,1.7c-0.36,1.01-1.09,1.36-1.64,1.48
			c-0.31,0.06-0.65,0.12-1.02,0.12c-1.88-0.01-3.75-0.03-5.62-0.06c-0.78-0.01-1.56-0.04-2.31-0.06l-0.95-0.03l-2.82-0.01
			c-1.15,0-2.51,0.01-3.88,0.11c-0.45,0.03-0.89,0.04-1.34,0.04C564.6,471.73,563.77,471.72,563.77,471.72z"/>
		<path class="st8" d="M543.14,431.16c-1.15,0-2.38-0.01-3.64-0.19c-3.2-0.44-5.86-1.34-8.14-2.74c-2.61-1.61-4.68-3.85-6.14-6.65
			c-0.84-1.61-1.41-3.4-1.71-5.31c-0.31-2.01-0.39-3.85-0.25-5.62c0.31-4,1.78-7.55,4.36-10.58c2.2-2.58,5.01-4.4,8.35-5.42
			c1.65-0.5,3.39-0.75,5.3-0.76h0.17c1.77,0,3.24,0.07,4.64,0.22c2.56,0.28,4.49,0.7,6.26,1.35c0.14,0.05,0.3,0.09,0.45,0.13
			c0.09,0.02,0.17,0.03,0.24,0.03c0.05,0,0.1-0.01,0.14-0.02c0.16-0.06,0.33-0.1,0.5-0.13c0.05-0.01,0.16-0.01,0.21-0.01
			c0.71,0,1.27,0.52,1.33,1.23c0.02,0.21,0.01,0.43-0.01,0.64c-0.02,0.17-0.04,0.34-0.07,0.51l-0.03,0.17
			c-0.15,1-0.19,1.88-0.11,2.7c0.07,0.76,0.07,1.51,0.06,2.24l0,0.25c0,0.38-0.08,0.73-0.16,1.03c-0.16,0.66-0.64,1.08-1.25,1.15
			c-0.04,0-0.16,0.01-0.2,0.01c-0.55,0-1.04-0.28-1.29-0.75c-0.13-0.25-0.23-0.5-0.28-0.76c-0.07-0.35-0.12-0.71-0.15-1.07
			c-0.02-0.21-0.1-0.44-0.27-0.73c-0.72-1.27-1.73-2.21-3.1-2.86c-1.42-0.68-2.94-1.11-4.54-1.28c-0.92-0.1-1.68-0.14-2.39-0.14
			c-0.18,0-0.37,0-0.55,0.01c-1.55,0.05-2.89,0.44-4.11,1.17c-1.33,0.8-2.39,1.85-3.26,3.21c-0.82,1.29-1.41,2.72-1.79,4.37
			c-0.33,1.39-0.48,2.84-0.46,4.29c0.04,2.55,0.29,4.59,0.8,6.44c0.62,2.25,1.49,4.08,2.68,5.58c1.79,2.27,4.17,3.68,7.07,4.18
			c0.73,0.13,1.46,0.19,2.16,0.19c0.69,0,1.38-0.06,2.04-0.18c0.48-0.08,0.95-0.21,1.4-0.37c1.05-0.37,2.08-0.88,3.08-1.51
			c0.21-0.13,0.39-0.3,0.55-0.5c0.57-0.73,1-1.56,1.29-2.47c0.04-0.12,0.06-0.25,0.08-0.38l0.01-0.12c0-0.09,0.01-0.18,0.02-0.27
			c0.11-0.83,0.68-1.2,1.17-1.28c0.08-0.01,0.17-0.02,0.25-0.02c0.67,0,1.22,0.42,1.4,1.08c0.1,0.36,0.14,0.71,0.16,0.95
			c0.05,0.7-0.07,1.36-0.19,1.94l-0.05,0.24c-0.1,0.54-0.22,1.08-0.34,1.62c-0.12,0.55-0.24,1.1-0.34,1.65
			c-0.22,1.17-0.95,1.94-2.1,2.23c-1.98,0.5-4.12,0.98-6.37,1.14c-0.5,0.04-2.25,0.15-2.25,0.15
			C543.73,431.16,543.14,431.16,543.14,431.16z"/>
		<path class="st8" d="M597.5,472.27c-0.63,0-1.28-0.03-1.97-0.1c-1.96-0.19-3.74-0.77-5.22-1.31c-1.04-0.38-1.45-0.96-1.47-2.07
			c-0.02-1.1-0.02-2.2-0.02-3.3c0-0.82,0.13-1.63,0.39-2.4c0.09-0.27,0.21-0.51,0.36-0.72c0.25-0.35,0.65-0.56,1.07-0.56
			c0.49,0,0.94,0.28,1.17,0.72c0.11,0.21,0.19,0.46,0.23,0.73c0.03,0.16,0.05,0.33,0.07,0.5c0.02,0.17,0.04,0.33,0.07,0.5
			c0.3,1.67,1.16,2.81,2.64,3.49c0.6,0.28,1.27,0.45,1.98,0.53c0.5,0.05,0.93,0.08,1.34,0.08c0.77,0,1.45-0.09,2.07-0.29
			c0.99-0.31,1.71-0.8,2.21-1.48c0.29-0.4,0.5-0.86,0.63-1.4c0.15-0.61,0.22-1.26,0.21-1.99c-0.01-1.12-0.4-2.08-1.2-2.92
			c-0.46-0.48-1-0.89-1.43-1.2l-0.61-0.43c-1.44-1.03-2.88-2.05-4.32-3.08l-0.41-0.29c-0.69-0.5-1.38-0.99-2.06-1.51
			c-0.83-0.63-1.61-1.42-2.31-2.33c-1-1.31-1.64-2.87-1.9-4.65c-0.15-1.05-0.21-1.97-0.17-2.82c0.06-1.23,0.27-2.3,0.64-3.27
			c0.68-1.75,1.91-3.14,3.68-4.13c1.27-0.72,2.66-1.17,4.14-1.35c0.75-0.09,1.43-0.15,2.07-0.18c0.18-0.01,0.36-0.01,0.54-0.01
			c1.36,0,2.72,0.19,4.16,0.59c0.32,0.09,0.65,0.17,0.98,0.23c0.17,0.03,0.33,0.05,0.49,0.05c0.21,0,0.38-0.04,0.54-0.11
			c0.21-0.1,0.5-0.22,0.85-0.22c0.25,0,0.48,0.06,0.71,0.17c0.17,0.08,0.32,0.22,0.42,0.38c0.39,0.65,0.19,1.32,0.13,1.54
			c-0.11,0.35-0.1,0.75-0.09,1.22c0.01,0.91,0.02,1.8,0,2.69c-0.02,0.57-0.07,1.17-0.18,1.9c-0.06,0.4-0.21,0.74-0.33,1.02
			c-0.23,0.52-0.7,0.82-1.25,0.82c-0.04,0-0.13-0.01-0.17-0.01c-0.56-0.07-1.01-0.44-1.17-0.98c-0.07-0.24-0.12-0.5-0.16-0.75
			l-0.1-0.64c-0.05-0.31-0.09-0.62-0.15-0.93c-0.13-0.71-0.5-1.28-1.14-1.77c-1.06-0.81-2.2-1.23-3.48-1.29
			c-0.15-0.01-0.3-0.01-0.45-0.01c-0.67,0-1.21,0.08-1.71,0.26c-1.64,0.58-2.5,1.64-2.71,3.33c-0.09,0.71-0.04,1.41,0.16,2.08
			c0.13,0.46,0.36,0.86,0.69,1.23c0.39,0.44,0.81,0.83,1.26,1.14c1.72,1.21,3.44,2.41,5.16,3.62l0.39,0.27
			c0.98,0.69,2,1.39,2.95,2.21c1.39,1.19,2.44,2.58,3.12,4.12c0.6,1.37,0.87,2.85,0.79,4.41c-0.07,1.33-0.38,2.67-0.91,4.01
			c-0.5,1.24-1.29,2.36-2.43,3.42c-1.67,1.55-3.66,2.56-5.93,3C599.41,472.18,598.49,472.27,597.5,472.27z"/>
	</g>
	<g>
		<path d="M524.49,448.83c-0.24,0.24-0.25,0.48-0.27,0.72c-0.19,1.71-0.38,3.41-0.57,5.12c-0.2,1.77-0.42,3.54-0.61,5.31
			c-0.16,1.45-0.29,2.9-0.42,4.36c-0.05,0.58-0.09,1.16-0.12,1.73c-0.04,0.6,0.02,1.2,0.13,1.79c0.04,0.21,0.11,0.41,0.18,0.62
			c0.13,0.38,0.39,0.66,0.75,0.85c0.37,0.19,0.76,0.3,1.16,0.38c0.4,0.08,0.8,0.14,1.2,0.24c0.18,0.04,0.4,0.08,0.43,0.33
			c0.02,0.17-0.16,0.36-0.42,0.42c-0.16,0.04-0.34,0.05-0.51,0.05c-0.69-0.02-1.37-0.03-2.06-0.07c-1.78-0.11-3.56-0.13-5.34,0.01
			c-0.62,0.05-1.24,0.05-1.87,0.05c-0.17,0-0.34-0.03-0.51-0.07c-0.15-0.04-0.25-0.15-0.27-0.33c-0.01-0.15,0.05-0.27,0.24-0.33
			c0.2-0.07,0.41-0.11,0.62-0.17c0.56-0.14,1.11-0.31,1.58-0.69c0.62-0.51,1.05-1.12,1.23-1.91c0.23-0.99,0.37-1.98,0.49-2.98
			c0.08-0.7,0.16-1.41,0.24-2.11c0.22-1.9,0.43-3.79,0.65-5.69c0.14-1.24,0.3-2.47,0.45-3.71c0.14-1.19,0.27-2.39,0.41-3.58
			c0.2-1.77,0.41-3.54,0.62-5.31c0.14-1.19,0.27-2.39,0.41-3.58c0.12-1.04,0.23-2.09,0.36-3.13c0.03-0.25,0.1-0.51,0.19-0.75
			c0.15-0.4,0.49-0.49,0.82-0.21c0.21,0.18,0.38,0.41,0.52,0.64c0.24,0.41,0.44,0.83,0.65,1.26c3.59,7.08,7.17,14.16,10.76,21.25
			c0.28,0.55,0.58,1.1,0.9,1.64c0.12,0.2,0.28,0.38,0.44,0.55c0.12,0.13,0.34,0.13,0.47,0c0.16-0.17,0.31-0.36,0.42-0.56
			c0.41-0.78,0.82-1.55,1.2-2.35c3.47-7.21,6.93-14.43,10.39-21.64c0.07-0.15,0.15-0.31,0.23-0.46c0.05-0.1,0.1-0.19,0.17-0.28
			c0.18-0.22,0.39-0.42,0.71-0.37c0.29,0.05,0.42,0.27,0.51,0.53c0.06,0.18,0.11,0.37,0.14,0.56c0.24,1.81,0.46,3.62,0.7,5.43
			c0.14,1.11,0.3,2.21,0.45,3.32c0.14,1.04,0.27,2.09,0.4,3.13c0.14,1.09,0.28,2.17,0.42,3.26c0.21,1.66,0.43,3.32,0.64,4.98
			c0.13,1,0.26,2,0.39,3c0.22,1.75,0.43,3.49,0.66,5.24c0.1,0.79,0.17,1.58,0.47,2.33c0.11,0.28,0.22,0.56,0.36,0.82
			c0.39,0.73,1.02,1.14,1.83,1.28c0.23,0.04,0.47,0.06,0.7,0.11c0.19,0.04,0.31,0.19,0.33,0.35c0.01,0.16-0.09,0.34-0.28,0.39
			c-0.29,0.07-0.59,0.14-0.88,0.15c-0.73,0.01-1.46,0-2.19-0.04c-2.04-0.12-4.07-0.16-6.11,0.01c-0.96,0.08-1.93,0.04-2.9,0.02
			c-0.23,0-0.47-0.07-0.68-0.16c-0.24-0.1-0.26-0.45-0.03-0.57c0.24-0.13,0.51-0.2,0.78-0.27c0.27-0.06,0.55-0.08,0.83-0.12
			c0.64-0.09,1.09-0.47,1.42-1.01c0.26-0.43,0.38-0.91,0.44-1.4c0.09-0.88,0.13-1.75,0.09-2.64c-0.05-1.24-0.19-2.48-0.33-3.72
			c-0.16-1.3-0.29-2.6-0.44-3.9c-0.14-1.24-0.29-2.47-0.43-3.71c-0.14-1.21-0.28-2.43-0.42-3.64c-0.02-0.15-0.03-0.3-0.07-0.44
			c-0.02-0.07-0.11-0.15-0.17-0.16c-0.07-0.01-0.18,0.03-0.22,0.08c-0.11,0.16-0.19,0.33-0.27,0.51c-2.12,4.43-4.23,8.87-6.35,13.3
			c-1.03,2.15-2.05,4.3-3.08,6.44c-0.15,0.31-0.31,0.62-0.49,0.9c-0.44,0.69-0.73,0.7-1.17,0.03c-0.17-0.25-0.3-0.52-0.44-0.79
			c-1.38-2.72-2.75-5.43-4.13-8.15c-1.99-3.92-3.97-7.85-5.96-11.77c-0.09-0.17-0.18-0.34-0.28-0.51
			C524.65,448.94,524.57,448.9,524.49,448.83z"/>
		<path d="M456.22,454.34c-2.58,0-5.15,0-7.73,0c-0.21,0-0.43,0-0.64,0.02c-0.24,0.03-0.35,0.12-0.38,0.36
			c-0.03,0.23-0.04,0.47-0.04,0.71c0,2-0.01,3.99,0,5.99c0,1.48,0.02,2.96,0.03,4.44c0.01,0.6,0.07,1.2,0.21,1.79
			c0.13,0.58,0.39,1.08,0.87,1.46c0.26,0.2,0.54,0.36,0.86,0.42c0.36,0.07,0.72,0.11,1.08,0.18c0.25,0.05,0.5,0.1,0.75,0.17
			c0.15,0.04,0.24,0.17,0.26,0.34c0.01,0.19-0.06,0.34-0.25,0.4c-0.22,0.07-0.46,0.12-0.69,0.12c-0.62,0-1.24-0.02-1.87-0.04
			c-0.94-0.03-1.89-0.1-2.83-0.11c-1.95-0.02-3.91-0.02-5.86,0.11c-0.51,0.04-1.03,0.03-1.54,0.04c-0.22,0-0.43-0.02-0.62-0.14
			c-0.16-0.1-0.25-0.27-0.22-0.43c0.03-0.16,0.13-0.28,0.29-0.31c0.29-0.06,0.59-0.1,0.89-0.16c0.53-0.1,1.05-0.19,1.57-0.32
			c0.54-0.13,0.91-0.5,1.07-1.02c0.16-0.51,0.31-1.03,0.36-1.56c0.09-0.96,0.16-1.93,0.16-2.89c0.01-7.13,0.01-14.25,0-21.38
			c0-0.86,0.02-1.72-0.13-2.57c-0.04-0.21-0.08-0.42-0.14-0.63c-0.25-0.89-0.81-1.44-1.74-1.6c-0.25-0.04-0.5-0.1-0.76-0.16
			c-0.13-0.03-0.25-0.05-0.38-0.09c-0.2-0.07-0.3-0.2-0.3-0.37c0-0.16,0.12-0.3,0.32-0.35c0.19-0.04,0.38-0.06,0.57-0.05
			c0.75,0.01,1.5,0.02,2.25,0.06c1.84,0.11,3.69,0.15,5.53-0.03c0.62-0.06,1.24-0.11,1.86-0.16c0.38-0.03,0.77-0.04,1.16-0.04
			c0.17,0,0.34,0.03,0.51,0.07c0.18,0.05,0.28,0.21,0.28,0.39c0,0.18-0.1,0.32-0.3,0.37c-0.27,0.07-0.55,0.11-0.82,0.19
			c-0.37,0.11-0.73,0.24-1.09,0.38c-0.66,0.26-0.99,0.78-1.14,1.45c-0.17,0.76-0.19,1.53-0.2,2.3c-0.02,1.8-0.02,3.61-0.02,5.41
			c0,1.14,0,2.28,0,3.41c0,0.19,0,0.39,0,0.58c0.02,0.72,0.09,0.79,0.83,0.81c0.19,0,0.39,0,0.58,0c4.96,0,9.92,0,14.87,0
			c0.32,0,0.64,0,0.97-0.02c0.3-0.02,0.41-0.15,0.44-0.45c0.01-0.13,0.01-0.26,0.01-0.39c0-3.28,0-6.57,0-9.85
			c0-0.52-0.05-1.03-0.17-1.53c-0.04-0.17-0.09-0.33-0.15-0.49c-0.23-0.74-0.75-1.18-1.48-1.39c-0.31-0.09-0.63-0.14-0.94-0.22
			c-0.19-0.05-0.38-0.09-0.55-0.17c-0.08-0.04-0.15-0.15-0.17-0.24c-0.03-0.13,0.03-0.26,0.15-0.32c0.09-0.05,0.2-0.08,0.3-0.1
			c0.19-0.02,0.39-0.03,0.58-0.02c1.01,0.02,2.02,0.03,3.02,0.09c1.61,0.09,3.22,0.08,4.83,0c0.92-0.05,1.84-0.06,2.77-0.08
			c0.17,0,0.35,0.01,0.51,0.05c0.15,0.04,0.26,0.16,0.27,0.33c0.01,0.17-0.08,0.29-0.23,0.35c-0.16,0.06-0.32,0.11-0.49,0.16
			c-0.39,0.12-0.79,0.21-1.17,0.35c-0.66,0.25-1.12,0.69-1.27,1.41c-0.15,0.7-0.25,1.39-0.27,2.1c-0.02,0.62-0.03,1.24-0.03,1.87
			c0,5.45-0.01,10.9,0,16.36c0,2.17,0,4.34,0.18,6.5c0.04,0.53,0.14,1.06,0.22,1.59c0.02,0.15,0.08,0.29,0.13,0.43
			c0.17,0.52,0.51,0.91,1.02,1.09c0.46,0.16,0.94,0.28,1.42,0.4c0.27,0.07,0.55,0.1,0.82,0.15c0.06,0.01,0.13,0.02,0.19,0.05
			c0.15,0.05,0.26,0.21,0.25,0.34c-0.01,0.16-0.09,0.31-0.24,0.35c-0.27,0.07-0.54,0.14-0.82,0.14c-0.79,0.01-1.59,0.01-2.38-0.04
			c-2.55-0.16-5.1-0.14-7.66,0.01c-0.6,0.04-1.2,0.03-1.8,0.04c-0.21,0-0.43-0.01-0.62-0.15c-0.14-0.1-0.17-0.35-0.02-0.44
			c0.14-0.09,0.31-0.15,0.47-0.19c0.4-0.09,0.8-0.15,1.2-0.25c0.25-0.06,0.49-0.15,0.73-0.24c0.58-0.24,0.93-0.67,1.04-1.29
			c0.06-0.32,0.11-0.64,0.14-0.95c0.16-1.37,0.23-2.74,0.22-4.11c-0.01-2.6,0-5.19,0-7.79c0-0.11,0-0.21,0-0.32
			c-0.02-0.52-0.13-0.62-0.67-0.65c-0.19-0.01-0.39,0-0.58,0C461.33,454.34,458.77,454.34,456.22,454.34z"/>
		<path d="M577.76,410.62c2.49,0,4.98,0,7.47,0c0.3,0,0.6,0,0.9-0.02c0.27-0.02,0.37-0.14,0.41-0.41c0.02-0.17,0.02-0.34,0.02-0.51
			c0-3.09,0-6.18,0-9.27c0-0.69,0-1.38-0.18-2.05c-0.06-0.23-0.12-0.46-0.21-0.67c-0.21-0.5-0.56-0.87-1.07-1.05
			c-0.4-0.14-0.82-0.23-1.24-0.34c-0.19-0.05-0.37-0.09-0.56-0.15c-0.14-0.04-0.2-0.16-0.2-0.3c0-0.14,0.06-0.26,0.19-0.31
			c0.16-0.05,0.33-0.09,0.5-0.1c0.47-0.01,0.94-0.01,1.42,0c0.97,0.03,1.93,0.09,2.9,0.11c0.97,0.02,1.93,0.02,2.9,0
			c1.2-0.03,2.4-0.09,3.6-0.12c0.19-0.01,0.39,0,0.58,0.03c0.2,0.03,0.32,0.17,0.34,0.33c0.02,0.17-0.06,0.31-0.26,0.39
			c-0.14,0.06-0.29,0.08-0.43,0.13c-0.39,0.12-0.79,0.22-1.17,0.35c-0.69,0.25-1.18,0.7-1.29,1.46c-0.11,0.72-0.21,1.44-0.28,2.17
			c-0.05,0.53-0.03,1.07-0.03,1.61c0,5.52,0,11.03,0,16.55c0,2.13,0.01,4.25,0.19,6.37c0.05,0.53,0.12,1.07,0.19,1.6
			c0.02,0.15,0.08,0.29,0.12,0.43c0.17,0.57,0.53,0.99,1.09,1.18c0.44,0.16,0.9,0.26,1.36,0.37c0.31,0.08,0.63,0.12,0.95,0.19
			c0.2,0.05,0.33,0.19,0.33,0.35c0,0.16-0.11,0.32-0.3,0.38c-0.14,0.05-0.29,0.08-0.44,0.09c-0.36,0.02-0.73,0.04-1.09,0.03
			c-0.69-0.01-1.37-0.03-2.06-0.07c-2.34-0.15-4.68-0.11-7.02,0.01c-0.6,0.03-1.2,0.05-1.8,0.05c-0.23,0-0.47-0.04-0.7-0.09
			c-0.13-0.03-0.25-0.14-0.22-0.27c0.02-0.11,0.11-0.26,0.2-0.3c0.24-0.09,0.5-0.13,0.74-0.19c0.48-0.12,0.96-0.22,1.43-0.37
			c0.7-0.23,1.1-0.74,1.18-1.46c0.12-1.11,0.29-2.22,0.3-3.33c0.05-3.18,0.03-6.35,0.04-9.53c0-0.76-0.1-0.84-0.87-0.85
			c-2.4,0-4.81,0-7.21,0c-2.86,0-5.71,0-8.57,0c-0.21,0-0.43,0-0.64,0.02c-0.23,0.02-0.35,0.14-0.38,0.37
			c-0.03,0.23-0.04,0.47-0.04,0.71c0,3.05-0.01,6.1,0,9.15c0,0.69,0.02,1.38,0.09,2.06c0.05,0.51,0.15,1.03,0.32,1.5
			c0.27,0.76,0.83,1.24,1.63,1.39c0.36,0.07,0.72,0.11,1.08,0.18c0.23,0.04,0.46,0.1,0.69,0.17c0.16,0.05,0.24,0.18,0.25,0.34
			c0.02,0.17-0.08,0.35-0.26,0.4c-0.22,0.06-0.46,0.11-0.69,0.12c-0.49,0.01-0.99,0.01-1.48-0.02c-3-0.21-6.01-0.18-9.01-0.02
			c-0.51,0.03-1.03,0.05-1.54,0.04c-0.21,0-0.42-0.05-0.62-0.12c-0.18-0.06-0.27-0.21-0.27-0.4c0-0.17,0.11-0.31,0.31-0.36
			c0.23-0.06,0.46-0.09,0.69-0.13c0.4-0.07,0.81-0.13,1.21-0.2c0.15-0.03,0.29-0.07,0.44-0.11c0.64-0.16,1.05-0.57,1.22-1.2
			c0.13-0.47,0.26-0.96,0.31-1.44c0.09-0.96,0.16-1.93,0.17-2.89c0.01-7.13,0.01-14.25,0.01-21.38c0-0.52-0.01-1.03-0.03-1.55
			c-0.03-0.62-0.09-1.24-0.31-1.83c-0.24-0.67-0.68-1.14-1.38-1.32c-0.35-0.09-0.71-0.15-1.07-0.23c-0.15-0.03-0.29-0.06-0.43-0.12
			c-0.15-0.06-0.23-0.19-0.22-0.36c0.01-0.15,0.1-0.25,0.23-0.28c0.21-0.05,0.42-0.1,0.63-0.1c0.49-0.01,0.99,0,1.48,0.02
			c0.88,0.04,1.76,0.1,2.64,0.13c1.83,0.07,3.65-0.09,5.46-0.27c0.45-0.04,0.9-0.05,1.35-0.05c0.17,0,0.34,0.05,0.49,0.11
			c0.15,0.06,0.21,0.2,0.2,0.37c-0.01,0.17-0.1,0.29-0.26,0.33c-0.27,0.07-0.55,0.11-0.81,0.19c-0.39,0.12-0.77,0.25-1.15,0.4
			c-0.64,0.25-0.97,0.75-1.12,1.39c-0.18,0.78-0.2,1.58-0.22,2.37c-0.02,1.35-0.02,2.7-0.02,4.06c0,1.72,0,3.43,0,5.15
			c0,0.94,0.04,0.98,0.99,0.98C572.47,410.62,575.11,410.62,577.76,410.62C577.76,410.62,577.76,410.62,577.76,410.62z"/>
		<path d="M495.59,471.42c-3.43,0.07-6.62-0.83-9.53-2.63c-3.84-2.37-6.38-5.74-7.57-10.09c-0.52-1.9-0.67-3.84-0.55-5.81
			c0.11-1.8,0.4-3.58,0.99-5.3c0.98-2.86,2.54-5.34,4.83-7.33c1.69-1.47,3.63-2.51,5.76-3.19c1.79-0.57,3.63-0.85,5.51-0.88
			c1.59-0.03,3.17,0.11,4.72,0.48c1.88,0.44,3.62,1.2,5.24,2.23c3.54,2.25,5.94,5.41,7.24,9.38c0.49,1.49,0.72,3.04,0.74,4.62
			c0.03,2.66-0.34,5.26-1.2,7.78c-0.78,2.29-1.98,4.32-3.69,6.05c-1.66,1.68-3.63,2.86-5.85,3.65
			C500.09,471.13,497.86,471.42,495.59,471.42z M507.01,455.84c-0.03-2.77-0.28-4.85-0.8-6.9c-0.47-1.86-1.18-3.63-2.2-5.26
			c-1.02-1.64-2.32-3.03-3.95-4.08c-1.1-0.71-2.29-1.15-3.58-1.36c-1.22-0.19-2.43-0.18-3.65,0.01c-1.25,0.2-2.4,0.63-3.43,1.37
			c-1.37,0.97-2.46,2.19-3.28,3.66c-0.8,1.43-1.36,2.95-1.69,4.57c-0.23,1.14-0.43,2.28-0.47,3.44c-0.05,1.26-0.02,2.53,0.12,3.79
			c0.23,2.06,0.68,4.06,1.45,5.98c0.83,2.07,1.97,3.95,3.62,5.49c1.83,1.71,3.98,2.73,6.49,2.94c2.52,0.21,4.75-0.46,6.66-2.14
			c1.55-1.36,2.65-3.03,3.4-4.93C506.63,460.1,507.01,457.67,507.01,455.84z"/>
		<path d="M455.01,411.6c0.23,0.11,0.34,0.18,0.45,0.21c1.04,0.28,2.02,0.72,2.96,1.24c1.79,0.98,3.13,2.37,3.97,4.25
			c0.29,0.65,0.47,1.33,0.57,2.04c0.18,1.29,0.17,2.57-0.14,3.84c-0.38,1.58-1.28,2.84-2.53,3.86c-0.98,0.79-2.1,1.32-3.29,1.73
			c-1,0.34-2.03,0.53-3.08,0.67c-1.88,0.26-3.77,0.25-5.65,0.14c-0.92-0.05-1.84-0.13-2.76-0.2c-1.41-0.11-2.83-0.1-4.25-0.02
			c-0.9,0.05-1.8,0.08-2.7,0.11c-0.17,0.01-0.35,0.01-0.51-0.03c-0.16-0.04-0.32-0.12-0.45-0.22c-0.16-0.12-0.13-0.39,0.04-0.5
			c0.11-0.06,0.23-0.11,0.36-0.13c0.32-0.05,0.64-0.06,0.96-0.11c0.4-0.06,0.81-0.12,1.2-0.23c0.72-0.2,1.21-0.65,1.32-1.42
			c0.12-0.83,0.25-1.65,0.32-2.49c0.2-2.48,0.18-4.97,0.18-7.46c0-5.19,0-10.39,0-15.58c0-0.6,0-1.2-0.02-1.8
			c-0.02-0.49-0.08-0.98-0.13-1.47c-0.07-0.7-0.49-1.13-1.11-1.37c-0.28-0.11-0.58-0.16-0.87-0.21c-0.49-0.07-0.98-0.11-1.47-0.17
			c-0.14-0.02-0.29-0.07-0.42-0.13c-0.14-0.07-0.15-0.29-0.03-0.39c0.08-0.07,0.17-0.14,0.27-0.16c0.33-0.07,0.67-0.16,1.01-0.16
			c0.56-0.01,1.11,0.03,1.67,0.05c1.48,0.04,2.96,0.1,4.44,0.12c1.8,0.02,3.61-0.03,5.41,0.01c2.47,0.06,4.73,0.78,6.64,2.42
			c1.39,1.19,2.34,2.67,2.68,4.5c0.01,0.04,0.02,0.08,0.03,0.13c0.17,1.77,0.11,3.51-0.61,5.18c-0.51,1.18-1.29,2.12-2.43,2.74
			c-0.49,0.26-0.99,0.51-1.49,0.76C455.4,411.4,455.26,411.47,455.01,411.6z M447.49,419.08c0,0.73,0,1.46,0,2.19
			c0.01,1.03,0,2.06,0.03,3.09c0.02,0.73,0.08,1.46,0.34,2.15c0.31,0.81,0.87,1.36,1.77,1.5c0.17,0.03,0.34,0.04,0.51,0.05
			c0.9,0.05,1.8-0.02,2.69-0.18c1.07-0.2,2.06-0.6,2.9-1.31c1.07-0.9,1.76-2.02,1.98-3.43c0.16-1.03,0.15-2.05,0-3.07
			c-0.43-2.78-1.87-4.84-4.37-6.13c-1.14-0.59-2.36-0.91-3.63-1.02c-0.55-0.05-1.11-0.04-1.67-0.02c-0.39,0.02-0.52,0.18-0.54,0.58
			c-0.01,0.17,0,0.34,0,0.51C447.49,415.69,447.49,417.39,447.49,419.08z M447.49,404.36c0,1.82,0,3.64,0,5.47
			c0,0.21,0.01,0.43,0.02,0.64c0.02,0.25,0.18,0.39,0.4,0.45c0.16,0.04,0.34,0.04,0.51,0.05c0.66,0.01,1.33,0,1.99,0
			c0.64,0,1.28-0.03,1.92-0.14c1.11-0.19,1.95-0.75,2.45-1.77c0.14-0.29,0.26-0.59,0.35-0.89c0.26-0.89,0.32-1.81,0.31-2.74
			c-0.02-2.1-0.72-3.95-2.08-5.54c-0.82-0.96-1.81-1.69-3.02-2.12c-0.68-0.24-1.37-0.33-2.09-0.21c-0.49,0.09-0.66,0.26-0.73,0.76
			c-0.04,0.32-0.04,0.64-0.04,0.96C447.48,400.98,447.49,402.67,447.49,404.36z"/>
		<path d="M518.68,429.29c-2.23,0.07-3.82,0.12-5.4,0.16c-0.32,0.01-0.64,0.01-0.97,0c-0.15,0-0.3-0.02-0.44-0.06
			c-0.12-0.04-0.25-0.13-0.24-0.27c0.01-0.12,0.07-0.25,0.15-0.33c0.11-0.09,0.26-0.15,0.4-0.19c0.23-0.07,0.46-0.12,0.69-0.17
			c0.1-0.03,0.21-0.04,0.31-0.07c0.99-0.33,1.03-0.7,1.04-1.4c0.01-0.94-0.17-1.84-0.5-2.71c-0.5-1.35-1.03-2.68-1.54-4.02
			c-0.14-0.36-0.27-0.72-0.43-1.08c-0.14-0.34-0.3-0.66-0.46-0.99c-0.2-0.43-0.53-0.65-1.02-0.62c-0.47,0.02-0.94,0-1.42,0
			c-2.6,0-5.19,0-7.79,0c-0.85,0-0.94,0.04-1.24,0.83c-0.79,1.99-1.66,3.96-2.31,6c-0.23,0.72-0.43,1.44-0.47,2.2
			c-0.01,0.11-0.02,0.21-0.02,0.32c-0.01,0.62,0.15,0.83,0.72,1.07c0.58,0.24,1.21,0.29,1.81,0.44c0.23,0.05,0.46,0.11,0.68,0.2
			c0.2,0.07,0.29,0.22,0.27,0.39c-0.02,0.19-0.11,0.34-0.29,0.39c-0.18,0.05-0.38,0.08-0.57,0.08c-0.73-0.02-1.46-0.03-2.19-0.09
			c-1.03-0.08-2.06-0.1-3.09-0.07c-0.71,0.02-1.41,0.08-2.12,0.11c-0.62,0.03-1.24,0.04-1.87,0.04c-0.21,0-0.43-0.03-0.63-0.08
			c-0.18-0.04-0.29-0.18-0.3-0.37c-0.02-0.19,0.08-0.35,0.26-0.39c0.23-0.05,0.46-0.1,0.7-0.12c1.46-0.12,2.48-0.87,3.1-2.18
			c0.33-0.72,0.66-1.44,0.96-2.18c3.72-9.02,7.43-18.05,11.15-27.07c0.28-0.67,0.55-1.35,0.83-2.02c0.11-0.26,0.23-0.51,0.38-0.74
			c0.2-0.31,0.52-0.3,0.73,0.02c0.15,0.23,0.27,0.49,0.38,0.74c0.46,1.09,0.9,2.18,1.35,3.27c2.52,6.15,5.05,12.3,7.57,18.45
			c1.17,2.86,2.35,5.71,3.53,8.57c0.3,0.72,0.65,1.4,1.09,2.04c0.27,0.39,0.61,0.65,1.09,0.73c0.49,0.08,0.97,0.18,1.45,0.28
			c0.17,0.03,0.33,0.08,0.49,0.15c0.19,0.09,0.27,0.27,0.24,0.48c-0.03,0.19-0.15,0.31-0.33,0.35c-0.21,0.05-0.42,0.08-0.64,0.08
			c-0.62-0.01-1.25-0.01-1.87-0.06C520.61,429.27,519.32,429.28,518.68,429.29z M505.59,415.29c1.07,0,2.15,0,3.22,0
			c0.26,0,0.52,0,0.77-0.02c0.4-0.03,0.52-0.2,0.42-0.6c-0.06-0.25-0.16-0.49-0.25-0.73c-0.85-2.15-1.71-4.3-2.57-6.45
			c-0.36-0.92-0.73-1.83-1.1-2.74c-0.08-0.2-0.18-0.39-0.3-0.57c-0.09-0.14-0.3-0.13-0.37,0.01c-0.09,0.17-0.16,0.35-0.23,0.53
			c-1.28,3.25-2.55,6.5-3.83,9.76c-0.04,0.1-0.08,0.2-0.11,0.3c-0.09,0.31,0,0.46,0.3,0.49c0.21,0.02,0.43,0.02,0.64,0.02
			C503.31,415.3,504.45,415.29,505.59,415.29z"/>
		<path d="M476.15,429.3c-1.99-0.01-4.1-0.06-6.2,0.09c-0.79,0.06-1.59,0.05-2.38,0.06c-0.28,0-0.56-0.02-0.83-0.06
			c-0.14-0.02-0.29-0.08-0.42-0.15c-0.22-0.13-0.2-0.47,0.03-0.58c0.11-0.05,0.24-0.07,0.37-0.1c0.53-0.1,1.05-0.21,1.58-0.31
			c0.95-0.17,1.48-0.73,1.59-1.68c0.09-0.79,0.18-1.58,0.24-2.37c0.19-2.27,0.18-4.55,0.17-6.82c0-5.9,0-11.81,0-17.71
			c0-0.47,0.01-0.94-0.12-1.41c-0.13-0.45-0.36-0.82-0.71-1.12c-0.53-0.46-1.16-0.72-1.84-0.86c-0.25-0.05-0.51-0.09-0.76-0.15
			c-0.1-0.02-0.21-0.05-0.3-0.1c-0.2-0.1-0.2-0.36-0.01-0.46c0.11-0.06,0.24-0.1,0.36-0.12c0.23-0.03,0.47-0.04,0.71-0.03
			c0.64,0.01,1.29,0.02,1.93,0.06c2.81,0.16,5.62,0.14,8.43,0.02c1.85-0.08,3.69-0.08,5.54-0.08c0.9,0,1.8,0.01,2.7-0.13
			c0.27-0.04,0.56-0.03,0.84-0.03c0.23,0.01,0.34,0.12,0.37,0.36c0.02,0.13,0.02,0.26,0.01,0.39c-0.05,0.86,0.01,1.72,0.07,2.57
			c0.04,0.68,0.04,1.37,0.04,2.06c0,0.19-0.1,0.3-0.25,0.33c-0.18,0.03-0.34-0.04-0.43-0.21c-0.05-0.1-0.09-0.2-0.11-0.3
			c-0.03-0.12-0.04-0.25-0.06-0.38c-0.24-1.26-1.13-2.17-2.38-2.4c-0.48-0.09-0.98-0.14-1.47-0.15c-1.82-0.02-3.65-0.02-5.47-0.01
			c-0.3,0-0.6,0.05-0.88,0.13c-0.42,0.11-0.65,0.4-0.66,0.84c-0.01,0.17-0.01,0.34-0.01,0.51c0,3.5,0,7,0,10.5
			c0,0.19,0.01,0.39,0.03,0.58c0.02,0.19,0.15,0.31,0.34,0.34c0.17,0.03,0.34,0.04,0.51,0.04c1.74,0,3.48,0.01,5.22-0.01
			c0.45,0,0.9-0.05,1.34-0.14c0.64-0.12,1.09-0.49,1.24-1.15c0.11-0.48,0.23-0.96,0.34-1.44c0.03-0.15,0.07-0.29,0.11-0.43
			c0.05-0.15,0.12-0.28,0.3-0.29c0.14,0,0.24,0.09,0.29,0.29c0.04,0.19,0.08,0.38,0.08,0.57c0.01,0.49,0.04,0.99-0.01,1.48
			c-0.16,1.46-0.11,2.92-0.05,4.37c0.01,0.39,0.04,0.77,0.03,1.16c0,0.26-0.04,0.51-0.09,0.76c-0.02,0.08-0.12,0.18-0.21,0.21
			c-0.13,0.05-0.26-0.01-0.33-0.13c-0.07-0.13-0.12-0.27-0.16-0.42c-0.11-0.44-0.2-0.88-0.31-1.31c-0.04-0.14-0.09-0.29-0.15-0.42
			c-0.23-0.53-0.61-0.88-1.21-0.92c-0.41-0.03-0.81-0.1-1.22-0.1c-1.78-0.01-3.56-0.01-5.34,0c-0.72,0-0.75,0.03-0.75,0.78
			c0,3.73,0,7.47,0,11.21c0,0.19,0.01,0.39,0.02,0.58c0.01,0.78,0.43,1.3,1.1,1.6c0.41,0.18,0.86,0.28,1.3,0.35
			c1.58,0.24,3.17,0.19,4.75,0.09c0.58-0.03,1.16-0.07,1.72-0.24c0.24-0.08,0.5-0.14,0.73-0.23c0.53-0.2,0.98-0.53,1.32-1
			c0.33-0.45,0.61-0.94,0.84-1.45c0.08-0.17,0.18-0.34,0.29-0.49c0.14-0.17,0.38-0.12,0.47,0.09c0.11,0.23,0.1,0.46,0.05,0.69
			c-0.07,0.29-0.16,0.58-0.26,0.86c-0.39,1.07-0.79,2.13-1.17,3.2c-0.14,0.4-0.41,0.63-0.8,0.76c-0.33,0.11-0.67,0.13-1.02,0.13
			c-2.19-0.03-4.38-0.06-6.57-0.1C477.8,429.35,477.03,429.32,476.15,429.3z"/>
		<path d="M572.96,470.59c-2.33,0-4.56-0.06-6.79,0.11c-0.79,0.06-1.59,0.04-2.38,0.03c-0.27,0-0.55-0.08-0.82-0.14
			c-0.16-0.04-0.25-0.16-0.26-0.33c-0.01-0.15,0.11-0.32,0.31-0.36c0.36-0.08,0.72-0.12,1.08-0.19c0.4-0.08,0.79-0.18,1.18-0.29
			c0.59-0.17,0.93-0.58,1.07-1.17c0.17-0.67,0.23-1.36,0.28-2.04c0.14-1.95,0.24-3.9,0.24-5.85c-0.01-6.44,0-12.88,0-19.32
			c0-0.49,0.01-0.98-0.13-1.47c-0.13-0.47-0.39-0.85-0.76-1.16c-0.53-0.44-1.14-0.68-1.8-0.82c-0.27-0.06-0.55-0.1-0.82-0.17
			c-0.1-0.02-0.2-0.07-0.29-0.12c-0.14-0.09-0.15-0.3-0.02-0.38c0.1-0.07,0.22-0.13,0.34-0.15c0.19-0.03,0.38-0.04,0.58-0.03
			c0.77,0.01,1.55,0.01,2.32,0.06c2.85,0.16,5.71,0.1,8.56,0.01c1.76-0.06,3.52-0.05,5.28-0.07c0.86-0.01,1.72,0.01,2.57-0.13
			c0.32-0.05,0.64-0.03,0.96-0.03c0.17,0,0.28,0.12,0.31,0.28c0.02,0.13,0.04,0.26,0.03,0.38c-0.08,0.92,0.02,1.84,0.07,2.77
			c0.03,0.51,0.04,1.03,0.05,1.54c0,0.15-0.01,0.3-0.03,0.45c-0.02,0.14-0.1,0.24-0.24,0.27c-0.16,0.03-0.32,0-0.39-0.15
			c-0.09-0.19-0.16-0.4-0.19-0.61c-0.06-0.37-0.16-0.71-0.34-1.03c-0.43-0.81-1.12-1.3-2-1.49c-0.44-0.1-0.89-0.15-1.34-0.16
			c-1.93-0.02-3.86-0.02-5.8-0.01c-0.27,0-0.55,0.07-0.82,0.14c-0.36,0.1-0.57,0.37-0.61,0.75c-0.02,0.19-0.02,0.39-0.02,0.58
			c0,3.5,0,7,0,10.5c0,0.19,0.01,0.39,0.03,0.58c0.02,0.19,0.14,0.31,0.33,0.35c0.17,0.03,0.34,0.04,0.51,0.04
			c1.78,0,3.56,0,5.34-0.01c0.38,0,0.77-0.05,1.15-0.12c0.7-0.12,1.17-0.51,1.33-1.22c0.11-0.46,0.2-0.92,0.32-1.38
			c0.05-0.21,0.12-0.41,0.21-0.6c0.03-0.06,0.14-0.13,0.21-0.12c0.09,0.01,0.21,0.08,0.25,0.15c0.07,0.13,0.1,0.29,0.11,0.43
			c0.02,0.54,0.08,1.08,0.02,1.61c-0.15,1.44-0.12,2.87-0.07,4.31c0.02,0.45,0.03,0.9,0.03,1.35c0,0.23-0.02,0.47-0.06,0.7
			c-0.02,0.18-0.15,0.3-0.29,0.3c-0.17,0-0.29-0.09-0.35-0.24c-0.05-0.12-0.08-0.24-0.11-0.37c-0.1-0.42-0.19-0.84-0.29-1.25
			c-0.03-0.12-0.08-0.25-0.12-0.36c-0.24-0.58-0.63-0.96-1.29-1.01c-0.41-0.03-0.81-0.08-1.22-0.08c-1.76-0.01-3.52-0.01-5.28,0
			c-0.73,0-0.77,0.03-0.77,0.76c0,3.76,0,7.51,0,11.27c0,0.13,0.01,0.26,0.01,0.39c0.06,1.04,0.55,1.66,1.58,1.91
			c0.56,0.14,1.14,0.23,1.71,0.28c1.65,0.12,3.31,0.1,4.95-0.12c0.48-0.07,0.96-0.22,1.42-0.39c0.54-0.19,0.99-0.53,1.29-1.02
			c0.29-0.45,0.54-0.93,0.81-1.39c0.1-0.17,0.18-0.34,0.29-0.49c0.13-0.17,0.39-0.11,0.47,0.09c0.1,0.25,0.09,0.51,0.03,0.76
			c-0.08,0.33-0.18,0.66-0.3,0.98c-0.36,0.99-0.74,1.97-1.09,2.96c-0.16,0.45-0.44,0.73-0.9,0.83c-0.27,0.06-0.55,0.11-0.82,0.1
			c-1.87-0.01-3.73-0.03-5.6-0.06C575.09,470.65,573.98,470.61,572.96,470.59z"/>
		<path d="M543.69,430.16c-1.35,0-2.7,0.01-4.05-0.18c-2.75-0.38-5.36-1.13-7.75-2.6c-2.51-1.55-4.42-3.65-5.78-6.26
			c-0.82-1.58-1.34-3.25-1.6-5c-0.27-1.79-0.39-3.58-0.25-5.39c0.29-3.78,1.66-7.12,4.12-10c2.12-2.48,4.77-4.16,7.88-5.11
			c1.63-0.5,3.31-0.71,5.02-0.71c1.57,0,3.13,0.05,4.69,0.22c2.05,0.22,4.08,0.58,6.02,1.29c0.18,0.07,0.37,0.12,0.56,0.16
			c0.32,0.08,0.64,0.09,0.95-0.02c0.1-0.04,0.2-0.07,0.31-0.08c0.23-0.03,0.38,0.09,0.4,0.31c0.01,0.15,0.01,0.3-0.01,0.45
			c-0.02,0.21-0.06,0.42-0.09,0.64c-0.15,0.98-0.21,1.96-0.12,2.95c0.08,0.79,0.06,1.59,0.06,2.38c0,0.3-0.08,0.59-0.15,0.88
			c-0.04,0.18-0.18,0.29-0.37,0.32c-0.21,0.02-0.39-0.03-0.5-0.22c-0.08-0.15-0.14-0.31-0.17-0.48c-0.06-0.32-0.11-0.64-0.13-0.96
			c-0.03-0.42-0.19-0.79-0.39-1.15c-0.83-1.47-2.02-2.54-3.53-3.27c-1.54-0.74-3.16-1.19-4.87-1.37c-1.03-0.11-2.05-0.17-3.09-0.13
			c-1.64,0.06-3.18,0.46-4.59,1.31c-1.48,0.89-2.67,2.08-3.59,3.53c-0.92,1.45-1.53,3.02-1.92,4.68c-0.35,1.49-0.51,3-0.49,4.53
			c0.03,2.26,0.23,4.5,0.83,6.69c0.59,2.15,1.46,4.17,2.85,5.93c1.97,2.51,4.55,4.01,7.68,4.55c1.51,0.26,3.04,0.28,4.55,0.01
			c0.53-0.09,1.05-0.23,1.55-0.41c1.16-0.41,2.25-0.95,3.29-1.61c0.31-0.2,0.58-0.44,0.8-0.73c0.65-0.84,1.13-1.77,1.45-2.78
			c0.06-0.18,0.09-0.38,0.12-0.57c0.02-0.13,0.01-0.26,0.03-0.38c0.03-0.26,0.14-0.39,0.33-0.42c0.26-0.04,0.46,0.07,0.54,0.35
			c0.07,0.25,0.1,0.5,0.12,0.76c0.05,0.65-0.1,1.28-0.22,1.91c-0.21,1.1-0.48,2.18-0.68,3.27c-0.15,0.79-0.6,1.26-1.36,1.45
			c-2.04,0.51-4.09,0.96-6.2,1.11C545.19,430.06,544.44,430.11,543.69,430.16z"/>
		<path d="M607.19,436.61c0.14,0.23,0.1,0.5,0.02,0.74c-0.15,0.5-0.14,1.01-0.14,1.53c0.01,0.88,0.02,1.76,0,2.64
			c-0.02,0.6-0.08,1.2-0.17,1.79c-0.04,0.27-0.15,0.53-0.27,0.78c-0.06,0.14-0.21,0.22-0.37,0.2c-0.16-0.02-0.29-0.12-0.33-0.27
			c-0.06-0.2-0.1-0.42-0.13-0.63c-0.09-0.53-0.15-1.06-0.25-1.59c-0.18-1-0.72-1.77-1.52-2.38c-1.19-0.91-2.53-1.42-4.04-1.5
			c-0.87-0.04-1.72,0.01-2.54,0.3c-1.96,0.7-3.11,2.07-3.37,4.14c-0.11,0.84-0.05,1.67,0.19,2.49c0.18,0.61,0.48,1.14,0.9,1.62
			c0.43,0.48,0.9,0.92,1.43,1.29c1.72,1.21,3.44,2.42,5.17,3.62c1.11,0.77,2.23,1.53,3.25,2.42c1.22,1.05,2.2,2.28,2.86,3.76
			c0.56,1.26,0.77,2.59,0.7,3.96c-0.07,1.27-0.36,2.5-0.84,3.69c-0.48,1.2-1.25,2.19-2.19,3.06c-1.55,1.44-3.37,2.35-5.44,2.75
			c-1.49,0.29-2.99,0.29-4.49,0.14c-1.72-0.17-3.36-0.67-4.98-1.26c-0.65-0.24-0.8-0.44-0.81-1.14c-0.02-1.09-0.02-2.19-0.02-3.28
			c0-0.71,0.11-1.41,0.34-2.09c0.05-0.16,0.13-0.32,0.22-0.46c0.14-0.2,0.41-0.18,0.53,0.05c0.07,0.13,0.11,0.28,0.13,0.42
			c0.05,0.34,0.08,0.68,0.14,1.02c0.35,1.95,1.38,3.39,3.21,4.22c0.73,0.33,1.49,0.53,2.29,0.62c1.29,0.14,2.57,0.14,3.83-0.25
			c1.09-0.34,2.04-0.9,2.72-1.85c0.38-0.53,0.63-1.11,0.79-1.75c0.18-0.73,0.25-1.48,0.24-2.23c-0.01-1.4-0.52-2.59-1.47-3.6
			c-0.47-0.5-1.01-0.92-1.57-1.32c-1.64-1.17-3.29-2.34-4.92-3.52c-0.82-0.59-1.64-1.17-2.44-1.78c-0.8-0.61-1.5-1.34-2.12-2.15
			c-0.95-1.24-1.48-2.65-1.7-4.18c-0.13-0.87-0.2-1.75-0.16-2.63c0.05-1.01,0.21-2.01,0.57-2.96c0.62-1.61,1.75-2.78,3.23-3.62
			c1.17-0.66,2.43-1.07,3.77-1.23c0.66-0.08,1.32-0.14,1.99-0.17c1.49-0.06,2.95,0.15,4.39,0.54c0.35,0.1,0.71,0.18,1.07,0.25
			c0.56,0.1,1.11,0.11,1.64-0.14C606.71,436.57,606.93,436.49,607.19,436.61z"/>
	</g>
</g>
</svg>
